<?xml version="1.0" encoding="utf-8"?>
<!-- Generator: Adobe Illustrator 16.0.0, SVG Export Plug-In . SVG Version: 6.00 Build 0)  -->
<!DOCTYPE svg PUBLIC "-//W3C//DTD SVG 1.1//EN" "http://www.w3.org/Graphics/SVG/1.1/DTD/svg11.dtd">
<svg version="1.1" xmlns="http://www.w3.org/2000/svg" xmlns:xlink="http://www.w3.org/1999/xlink" x="0px" y="0px"
	 width="1435.453px" height="858.529px" viewBox="0 0 1435.453 858.529" enable-background="new 0 0 1435.453 858.529"
	 xml:space="preserve">
<g id="Layer_1">
	<g opacity="0.7">
		<rect x="-3.911" y="-50.639" fill="#89D4E6" width="1440.756" height="980.137"/>
	</g>
</g>
<g id="mountains">
	<g opacity="0.7">
		<polygon fill="#7ACADB" points="1364.574,384.71 1187.106,498.375 1076.668,384.71 973.743,437.68 844.191,278.098 
			744.062,346.905 602.359,197.09 372.446,438.859 249.191,318.483 103.254,463.193 20.563,421.225 0.323,442.982 0.323,662.85 
			1435.453,752.295 1435.453,472.496 		"/>
	</g>
	<g opacity="0.7">
		<g>
			<g>
				<g>
					<polygon fill="#3C505D" points="894.743,688.236 309.365,732.869 621.001,263.882 					"/>
				</g>
			</g>
			<g>
				<g>
					<polygon fill="#FFFFFF" points="617.479,384.711 641.143,349.758 697.206,382.014 621.001,263.882 550.174,370.471 
						587.054,355.862 					"/>
				</g>
			</g>
		</g>
		<g>
			<g>
				<g>
					<polygon fill="#45413E" points="500.129,688.236 101.959,688.236 301.043,427.096 					"/>
				</g>
			</g>
			<g>
				<g>
					<path fill="#FFFFFF" d="M294.069,486.793l12.959-12.205c0,0,23.439,3.654,35.718,7.209l-41.703-54.701l-38.989,51.143
						c4.374-1.551,8.896-2.602,13.421-3.096C283.364,474.033,294.069,486.793,294.069,486.793z"/>
				</g>
			</g>
		</g>
		<g>
			<g>
				<g>
					<polygon fill="#45413E" points="1200.48,688.236 638.777,688.236 919.629,318.483 					"/>
				</g>
			</g>
			<g>
				<path fill="#FFFFFF" d="M919.629,318.483l-53.948,71.025l29.062-7.941c0,0,15.722,40.224,15.722,39.546
					s27.539-25.084,27.539-25.084l60.601,26.43L919.629,318.483z"/>
			</g>
		</g>
		<g>
			<g>
				<g>
					<polygon fill="#3C505D" points="1317.799,688.236 919.629,688.236 1118.714,427.096 					"/>
				</g>
			</g>
			<g>
				<polygon fill="#FFFFFF" points="1118.714,427.096 1090.935,463.533 1112.882,456.336 1123.696,475.125 1130.692,459.467 
					1151.15,469.645 				"/>
			</g>
		</g>
	</g>
</g>
<g id="green">
	<g>
		<g>
			<path fill="#73A843" d="M1247.803,706.905c-228.179-127.69-730.959-78.198-871.505-19.034
				c-95.976,40.402-273.985-1.629-344.691,7.426c-28.87,3.697,288.368,115.745,304.604,146.332
				c16.238,30.584,41.993,51.024,68.708,65.428c61.562,33.188,129.952,38.316,196.788,40.817
				c121.292,4.537,242.749,1.887,363.846-7.94c80.31-6.516,162.138-16.72,235.722-58.159c17.569-9.892,35.491-22.811,46.528-42.168
				V706.905z"/>
		</g>
		<g>
			<path fill="#7DB54A" d="M376.298,687.871c-95.975,40.402-273.985-1.63-344.691,7.426c-7.702,0.986,9.233,9.686,38.502,22.486
				c83.847,2.784,223.723,19.287,304.849-16.686c194.409-86.205,644.666-98.335,872.844,29.355v-23.548
				C1019.624,579.215,516.844,628.707,376.298,687.871z"/>
		</g>
	</g>
	<path fill="#7DB54A" d="M1436.846,573.389c0,0-348.003,20.398-495.931,287.188c-66.516,119.959-33.129,97.359-33.129,97.359
		l522.004,21.418L1436.846,573.389z"/>
	<path fill="#73A843" d="M1442.844,585.461c0,0-348.003,20.398-495.933,287.186c-66.514,119.961-33.127,97.359-33.127,97.359
		l522.002,21.42L1442.844,585.461z"/>
	<path fill="#7DB54A" d="M-20.412,573.41c0,0,371.25,18.654,530.484,284.697c71.599,119.625,35.868,97.191,35.868,97.191
		l-556.589,24.035L-20.412,573.41z"/>
	<path fill="#73A843" d="M-20.412,593.773c0,0,371.25,18.654,530.485,284.697c71.599,119.625,35.867,97.193,35.867,97.193
		l-556.589,24.035L-20.412,593.773z"/>
	<text transform="matrix(1 0 0 1 440.0962 92.624)" fill="#FFFFFF" font-family="'Arial-Black'" font-size="72">TETRIS PLANT</text>
	<text transform="matrix(1 0 0 1 541.4341 124.5352)" fill="#FFFFFF" font-family="'Arial-Black'" font-size="24">SEND A LINE, PLANT A TREE</text>
</g>
<g id="bush">
</g>
<g id="plane">
	<g opacity="0.7">
		<g>
			<g>
				<path fill="#FAE576" d="M169.799,152.797c-1.021,0-1.997-0.58-2.456-1.565l-16.696-35.877c-0.631-1.355-0.043-2.965,1.312-3.596
					c1.356-0.631,2.965-0.042,3.596,1.312l16.696,35.877c0.631,1.355,0.043,2.965-1.312,3.596
					C170.57,152.715,170.181,152.797,169.799,152.797z"/>
			</g>
			<g>
				<path fill="#FFD409" d="M141.532,117.647h122.883c2.04,0,3.693-1.653,3.693-3.693l0,0c0-2.039-1.653-3.692-3.693-3.692H141.532
					c-2.04,0-3.693,1.653-3.693,3.692l0,0C137.839,115.994,139.493,117.647,141.532,117.647z"/>
			</g>
			<g>
				<path fill="#FFD409" d="M373.442,103.685l-38.326,33.029l-61.257-4.17l-37.708-15.651l-58.722,0.027l-15.738,14.699
					c0,0-37.433,0.896-37.936,10.112c-0.017,0.317-0.027,5.897-0.027,6.233c0,10.962,29.787,21.463,50.188,21.463
					c20.401,0,147.746,0,147.746,0l60.49-26.217l5.523-39.524H373.442z"/>
			</g>
			<g>
				<g>
					<path fill="#E09E1A" d="M227.477,165.958l-5.11,10.607l4.091,1.88l4.248-11.095c0.331-0.866-0.066-1.841-0.909-2.228l0,0
						C228.925,164.722,227.893,165.094,227.477,165.958z"/>
				</g>
				<g>
					<g>
						<circle fill="#333132" cx="222.334" cy="182.633" r="6.577"/>
					</g>
					<g>
						<circle fill="#BEC0C2" cx="222.335" cy="182.633" r="2.661"/>
					</g>
				</g>
				<g>
					<path fill="#E09E1A" d="M213.847,182.633c0.065-4.635,3.837-8.374,8.487-8.374s8.423,3.739,8.487,8.374H213.847z"/>
				</g>
			</g>
			<g>
				<g>
					<path fill="#E09E1A" d="M123.755,146.984c-0.017,0.317-0.027,0.643-0.027,0.979c0,10.962,29.787,21.463,50.188,21.463
						c20.401,0,150.235,0,150.235,0l51.779-22.442H123.755z"/>
				</g>
			</g>
			<g>
				<g>
					<path fill="#A3A5A8" d="M119.856,174.033L119.856,174.033c-2.082,0-3.698-1.813-3.461-3.881l2.786-24.312l-2.786-24.312
						c-0.237-2.067,1.38-3.88,3.461-3.88l0,0c2.069,0,3.682,1.793,3.464,3.851l-2.575,24.342l2.575,24.342
						C123.538,172.24,121.925,174.033,119.856,174.033z"/>
				</g>
				<g>
					<path fill="#A3A5A8" d="M123.755,141.73l-5.375,2.583c-1.279,0.614-1.277,2.436,0.003,3.048l5.713,2.729L123.755,141.73z"/>
				</g>
			</g>
		</g>
		<g>
			<polygon fill="#FFFFFF" points="165.143,132.543 177.782,119.42 194.562,119.42 194.562,136.714 179.853,136.714 			"/>
		</g>
		<g>
			<rect x="199.066" y="119.42" fill="#FFFFFF" width="25.782" height="17.294"/>
		</g>
		<g>
			<polygon fill="#FFFFFF" points="228.932,119.42 234.094,119.42 254.714,136.714 228.932,136.714 			"/>
		</g>
		<g>
			<path fill="#FAE676" d="M335.605,149.62h51.487c1.455,0,2.635-1.18,2.635-2.635l0,0c0-1.456-1.18-2.635-2.635-2.635h-51.487
				c-1.455,0-2.635,1.18-2.635,2.635l0,0C332.97,148.44,334.15,149.62,335.605,149.62z"/>
		</g>
		<g>
			<path fill="#FAE576" d="M308.725,156.633c-0.806,0-1.604-0.358-2.137-1.043l-31.14-39.972c-0.918-1.179-0.707-2.879,0.472-3.798
				s2.879-0.707,3.798,0.472l31.14,39.972c0.918,1.179,0.707,2.879-0.472,3.798C309.892,156.446,309.306,156.633,308.725,156.633z"
				/>
		</g>
		<g>
			<path fill="#E09E1A" d="M261.912,117.647h48.649c1.692,0,3.064-1.372,3.064-3.064v-1.256c0-1.692-1.372-3.064-3.064-3.064
				h-48.649c-1.692,0-3.064,1.372-3.064,3.064v1.256C258.847,116.275,260.219,117.647,261.912,117.647z"/>
		</g>
		<g>
			<g>
				<path fill="#FFD409" d="M243.015,165.958l5.11,10.607l-4.091,1.88l-4.248-11.095c-0.332-0.866,0.066-1.841,0.908-2.228l0,0
					C241.567,164.722,242.599,165.094,243.015,165.958z"/>
			</g>
			<g>
				<g>
					<circle fill="#333132" cx="248.157" cy="182.633" r="6.577"/>
				</g>
				<g>
					<circle fill="#BEC0C2" cx="248.157" cy="182.633" r="2.661"/>
				</g>
			</g>
			<g>
				<path fill="#FFD409" d="M256.645,182.633c-0.065-4.635-3.837-8.374-8.488-8.374s-8.422,3.739-8.487,8.374H256.645z"/>
			</g>
		</g>
		<g>
			<g>
				<path fill="#FFD409" d="M173.819,166.601l-3.928,11.1l-4.217-1.578l4.882-10.832c0.381-0.846,1.353-1.25,2.221-0.925l0,0
					C173.676,164.702,174.139,165.697,173.819,166.601z"/>
			</g>
			<g>
				<g>
					<circle fill="#333132" cx="166.17" cy="182.237" r="6.577"/>
				</g>
				<g>
					<circle fill="#BEC0C2" cx="166.17" cy="182.237" r="2.661"/>
				</g>
			</g>
			<g>
				<path fill="#FFD409" d="M175.044,182.347c-0.097-4.634-3.895-8.347-8.545-8.314c-4.65,0.032-8.396,3.797-8.429,8.432
					L175.044,182.347z"/>
			</g>
		</g>
		<g>
			<path fill="#E09E1A" d="M215.756,156.633c-0.611,0-1.226-0.206-1.732-0.628c-1.148-0.957-1.302-2.664-0.345-3.812l33.342-39.972
				c0.958-1.149,2.664-1.303,3.812-0.345c1.148,0.957,1.302,2.664,0.345,3.812l-33.342,39.972
				C217.301,156.302,216.531,156.633,215.756,156.633z"/>
		</g>
	</g>
</g>
<g id="sun">
	<g opacity="0.7">
		<circle fill="#FDE20D" cx="1181.687" cy="188.713" r="51.999"/>
	</g>
</g>
<g id="clouds">
	<g opacity="0.7">
		<path fill="#FFFFFF" d="M277.675,300.306c-0.321,0-0.639,0.014-0.958,0.024c-4.621-23.669-25.466-41.532-50.487-41.532
			c-23.324,0-43.02,15.523-49.327,36.801c-0.701-0.043-1.406-0.067-2.118-0.067c-18.798,0-34.037,15.239-34.037,34.037
			s15.239,34.037,34.037,34.037c9.347,0,17.813-3.769,23.964-9.868c7.951,5.034,17.375,7.95,27.481,7.95
			c11.853,0,22.768-4.011,31.467-10.746c5.23,4.891,12.252,7.89,19.978,7.89c16.161,0,29.263-13.102,29.263-29.263
			S293.836,300.306,277.675,300.306z"/>
	</g>
	<g opacity="0.7">
		<path fill="#FFFFFF" d="M1298.631,235.808c-3.191,0-6.24,0.595-9.053,1.67c-6.504-7.264-15.953-11.836-26.471-11.836
			c-2.451,0-4.846,0.249-7.158,0.722c-8.123-12.727-22.369-21.167-38.586-21.167c-25.264,0-45.744,20.48-45.744,45.745
			c0,25.265,20.48,45.745,45.744,45.745c8.996,0,17.383-2.599,24.457-7.083c5.934,4.448,13.303,7.083,21.287,7.083
			c10.518,0,19.967-4.572,26.471-11.836c2.812,1.076,5.861,1.67,9.053,1.67c14.004,0,25.355-11.353,25.355-25.357
			C1323.986,247.16,1312.635,235.808,1298.631,235.808z"/>
	</g>
	<g opacity="0.7">
		<path fill="#FFFFFF" d="M774.522,219.572c-0.174,0-0.344,0.009-0.516,0.013c-2.756-15.677-16.432-27.593-32.898-27.593
			c-18.453,0-33.412,14.959-33.412,33.413c0,0.636,0.021,1.267,0.057,1.895c-6.849,2.232-11.799,8.666-11.799,16.26
			c0,9.445,7.656,17.102,17.102,17.102c5.018,0,9.531-2.161,12.658-5.603c4.609,2.397,9.842,3.76,15.395,3.76
			c4.619,0,9.02-0.938,13.02-2.632c4.23,6.817,11.781,11.36,20.395,11.36c13.248,0,23.986-10.74,23.986-23.987
			C798.509,230.311,787.771,219.572,774.522,219.572z"/>
	</g>
	<g opacity="0.7">
		<g>
			<path fill="#FFFFFF" d="M392.98,154.169c-3.017,1.562-3.855,6.042-1.88,8.72c-0.968,0.239-1.936,0.479-2.904,0.718
				c-1.121,1.579-0.021,3.962,1.727,4.795c1.748,0.833,3.813,0.527,5.685,0.033c1.84-0.486,3.861-1.354,4.466-3.159
				c0.301-0.898-0.11-1.918-0.776-2.563c0.412-0.141,0.797-0.366,1.102-0.673c0.886-0.893,1.169-2.256,0.999-3.502
				C400.897,154.872,396.266,152.468,392.98,154.169z"/>
		</g>
		<g>
			<path fill="#FFFFFF" d="M457.052,141.854c-7.525-6.009-18.786-6.844-27.115-2.01c-2.938,1.705-5.659,4.307-6.195,7.661
				c-0.34,2.13,0.595,4.469,2.188,5.822c-1.427-0.269-2.902-0.288-4.331-0.022c-1.497,0.278-3.148,1.088-3.42,2.587
				c-0.257,1.413,0.925,2.765,2.289,3.215c1.363,0.45,2.846,0.227,4.264,0l0.402-0.025c-0.113,0.144-0.218,0.293-0.303,0.453
				c-1.398,2.611-0.541,6.037,1.513,8.172s5.06,3.13,8.012,3.373c4.288,0.353,8.842-0.854,11.876-3.903
				c2.173-2.183,3.365-5.383,3.107-8.407c0.303-0.022,0.604-0.051,0.897-0.087c4.945-0.608,10.735-2.882,11.473-7.809
				C462.235,147.366,459.823,144.067,457.052,141.854z"/>
		</g>
		<g>
			<path fill="#FFFFFF" d="M574.047,179.914c-2.486-2.357-5.875-3.519-9.234-4.188c-3.237-0.644-6.745-0.856-9.697,0.618
				c-2.952,1.474-5.022,5.107-3.789,8.168l0.315-0.348c-1.544,2.551-1.511,6.105,0.402,8.442c2.472,3.02,7.56,3.377,10.43,0.733
				c0.043-0.04,0.083-0.086,0.124-0.129c0.685,0.455,1.523,0.722,2.338,0.896c4.512,0.966,10.074-0.563,11.737-4.867
				C577.908,186.043,576.534,182.27,574.047,179.914z"/>
		</g>
	</g>
</g>
<g id="title">
</g>
</svg>
