<?xml version="1.0" encoding="utf-8"?>
<!-- Generator: Adobe Illustrator 16.0.0, SVG Export Plug-In . SVG Version: 6.00 Build 0)  -->
<!DOCTYPE svg PUBLIC "-//W3C//DTD SVG 1.1//EN" "http://www.w3.org/Graphics/SVG/1.1/DTD/svg11.dtd">
<svg version="1.1" xmlns="http://www.w3.org/2000/svg" xmlns:xlink="http://www.w3.org/1999/xlink" x="0px" y="0px"
	 width="1435.453px" height="858.529px" viewBox="0 0 1435.453 858.529" enable-background="new 0 0 1435.453 858.529"
	 xml:space="preserve">
<g id="Layer_1">
	<g>
		<rect x="-3.911" y="-50.639" fill="#89D4E6" width="1440.756" height="980.137"/>
	</g>
</g>
<g id="mountains">
	<g>
		<polygon fill="#7ACADB" points="1364.574,384.71 1187.106,498.375 1076.668,384.71 973.743,437.68 844.191,278.098 
			744.062,346.905 602.359,197.09 372.446,438.859 249.191,318.483 103.254,463.193 20.563,421.225 0.323,442.982 0.323,662.85 
			1435.453,752.295 1435.453,472.496 		"/>
	</g>
	<g>
		<g>
			<g>
				<g>
					<polygon fill="#3C505D" points="894.743,688.236 309.365,732.869 621.001,263.882 					"/>
				</g>
			</g>
			<g>
				<g>
					<polygon fill="#FFFFFF" points="617.479,384.711 641.143,349.758 697.206,382.014 621.001,263.882 550.174,370.471 
						587.054,355.862 					"/>
				</g>
			</g>
		</g>
		<g>
			<g>
				<g>
					<polygon fill="#45413E" points="500.129,688.236 101.959,688.236 301.043,427.096 					"/>
				</g>
			</g>
			<g>
				<g>
					<path fill="#FFFFFF" d="M294.069,486.793l12.959-12.205c0,0,23.439,3.654,35.718,7.209l-41.703-54.701l-38.989,51.143
						c4.374-1.551,8.896-2.602,13.421-3.096C283.364,474.033,294.069,486.793,294.069,486.793z"/>
				</g>
			</g>
		</g>
		<g>
			<g>
				<g>
					<polygon fill="#45413E" points="1200.48,688.236 638.777,688.236 919.629,318.483 					"/>
				</g>
			</g>
			<g>
				<path fill="#FFFFFF" d="M919.629,318.483l-53.948,71.025l29.062-7.941c0,0,15.722,40.224,15.722,39.546
					s27.539-25.084,27.539-25.084l60.601,26.43L919.629,318.483z"/>
			</g>
		</g>
		<g>
			<g>
				<g>
					<polygon fill="#3C505D" points="1317.799,688.236 919.629,688.236 1118.714,427.096 					"/>
				</g>
			</g>
			<g>
				<polygon fill="#FFFFFF" points="1118.714,427.096 1090.935,463.533 1112.882,456.336 1123.696,475.125 1130.692,459.467 
					1151.15,469.645 				"/>
			</g>
		</g>
	</g>
</g>
<g id="green">
	<g>
		<g>
			<path fill="#73A843" d="M1570.018,668.979C1154.805,527.664,239.902,582.438-15.847,647.913
				c-174.645,44.713-498.567-1.803-627.229,8.218c-52.535,4.092,524.739,128.095,554.283,161.944
				c29.548,33.848,76.413,56.469,125.027,72.408c112.025,36.729,236.472,42.405,358.091,45.173
				c220.712,5.021,441.727,2.088,662.086-8.788c146.139-7.211,295.039-18.503,428.939-64.364
				c31.971-10.946,64.582-25.244,84.666-46.667V668.979z"/>
		</g>
		<g>
			<path fill="#7DB54A" d="M-15.847,647.913c-174.644,44.713-498.567-1.804-627.229,8.218c-14.015,1.092,16.801,10.72,70.062,24.886
				c152.575,3.081,407.104,21.345,554.729-18.466c353.763-95.402,1173.089-108.826,1588.302,32.487v-26.06
				C1154.805,527.664,239.902,582.438-15.847,647.913z"/>
		</g>
	</g>
	<g>
		<path fill="#FFFFFF" d="M491.442,39.188h39.438v10.368h-13.232v31.619h-12.974V49.557h-13.232V39.188z"/>
		<path fill="#FFFFFF" d="M536.724,39.188h34.77v8.964h-21.767v6.673h20.191v8.563h-20.191v8.277h22.397v9.509h-35.4V39.188z"/>
		<path fill="#FFFFFF" d="M576.162,39.188H615.6v10.368h-13.232v31.619h-12.974V49.557h-13.232V39.188z"/>
		<path fill="#FFFFFF" d="M621.643,81.176V39.188h21.624c4.01,0,7.074,0.344,9.193,1.031c2.12,0.687,3.828,1.962,5.127,3.823
			c1.298,1.862,1.948,4.129,1.948,6.802c0,2.33-0.497,4.339-1.49,6.029c-0.994,1.69-2.36,3.06-4.098,4.11
			c-1.108,0.669-2.627,1.222-4.557,1.661c1.545,0.517,2.671,1.033,3.377,1.548c0.477,0.344,1.168,1.08,2.075,2.208
			c0.906,1.127,1.512,1.997,1.817,2.608l6.283,12.167h-14.66l-6.935-12.831c-0.878-1.661-1.661-2.74-2.349-3.236
			c-0.936-0.649-1.996-0.974-3.179-0.974h-1.146v17.041H621.643z M634.674,56.201h5.47c0.592,0,1.737-0.191,3.437-0.573
			c0.859-0.172,1.561-0.611,2.105-1.318c0.544-0.706,0.816-1.518,0.816-2.434c0-1.355-0.43-2.396-1.289-3.122
			c-0.859-0.725-2.473-1.088-4.84-1.088h-5.7V56.201z"/>
		<path fill="#FFFFFF" d="M667.611,39.188h13.003v41.987h-13.003V39.188z"/>
		<path fill="#FFFFFF" d="M687.66,67.285l12.344-0.773c0.268,2.005,0.812,3.533,1.633,4.583c1.336,1.7,3.246,2.549,5.729,2.549
			c1.852,0,3.279-0.434,4.281-1.303s1.504-1.876,1.504-3.022c0-1.088-0.478-2.062-1.432-2.921c-0.955-0.859-3.17-1.67-6.645-2.434
			c-5.691-1.279-9.749-2.979-12.173-5.098c-2.444-2.12-3.666-4.821-3.666-8.105c0-2.157,0.625-4.196,1.876-6.115
			c1.25-1.919,3.131-3.427,5.642-4.525c2.511-1.098,5.952-1.646,10.325-1.646c5.365,0,9.456,0.998,12.273,2.993
			c2.815,1.996,4.491,5.17,5.025,9.523l-12.229,0.716c-0.326-1.891-1.008-3.265-2.049-4.125c-1.041-0.859-2.477-1.289-4.311-1.289
			c-1.508,0-2.645,0.32-3.408,0.959s-1.145,1.417-1.145,2.334c0,0.668,0.314,1.27,0.944,1.805c0.61,0.554,2.062,1.069,4.354,1.546
			c5.671,1.222,9.733,2.458,12.187,3.709c2.453,1.251,4.238,2.802,5.355,4.654s1.676,3.923,1.676,6.215
			c0,2.692-0.744,5.175-2.234,7.447c-1.488,2.272-3.57,3.995-6.243,5.169s-6.043,1.761-10.11,1.761
			c-7.141,0-12.086-1.375-14.835-4.124S688.022,71.524,687.66,67.285z"/>
		<path fill="#FFFFFF" d="M748.895,39.188h39.438v10.368h-13.231v31.619h-12.975V49.557h-13.231V39.188z"/>
		<path fill="#FFFFFF" d="M794.375,81.176V39.188h21.624c4.01,0,7.074,0.344,9.193,1.031c2.119,0.687,3.828,1.962,5.127,3.823
			c1.298,1.862,1.947,4.129,1.947,6.802c0,2.33-0.496,4.339-1.49,6.029c-0.993,1.69-2.359,3.06-4.098,4.11
			c-1.108,0.669-2.627,1.222-4.557,1.661c1.545,0.517,2.671,1.033,3.378,1.548c0.477,0.344,1.168,1.08,2.074,2.208
			c0.906,1.127,1.513,1.997,1.817,2.608l6.283,12.167h-14.66l-6.935-12.831c-0.879-1.661-1.661-2.74-2.349-3.236
			c-0.936-0.649-1.995-0.974-3.179-0.974h-1.146v17.041H794.375z M807.406,56.201h5.471c0.592,0,1.737-0.191,3.438-0.573
			c0.858-0.172,1.561-0.611,2.104-1.318c0.544-0.706,0.816-1.518,0.816-2.434c0-1.355-0.43-2.396-1.289-3.122
			c-0.859-0.725-2.473-1.088-4.84-1.088h-5.7V56.201z"/>
		<path fill="#FFFFFF" d="M839.8,39.188h34.77v8.964h-21.767v6.673h20.191v8.563h-20.191v8.277h22.396v9.509H839.8V39.188z"/>
		<path fill="#FFFFFF" d="M882.159,39.188h34.77v8.964h-21.767v6.673h20.191v8.563h-20.191v8.277h22.396v9.509h-35.399V39.188z"/>
		<path fill="#FFFFFF" d="M922.284,67.285l12.345-0.773c0.267,2.005,0.812,3.533,1.632,4.583c1.337,1.7,3.246,2.549,5.729,2.549
			c1.852,0,3.279-0.434,4.282-1.303c1.002-0.869,1.503-1.876,1.503-3.022c0-1.088-0.478-2.062-1.432-2.921
			c-0.955-0.859-3.17-1.67-6.645-2.434c-5.69-1.279-9.748-2.979-12.173-5.098c-2.444-2.12-3.666-4.821-3.666-8.105
			c0-2.157,0.626-4.196,1.876-6.115c1.251-1.919,3.132-3.427,5.643-4.525c2.511-1.098,5.952-1.646,10.325-1.646
			c5.365,0,9.456,0.998,12.272,2.993c2.816,1.996,4.491,5.17,5.026,9.523l-12.229,0.716c-0.325-1.891-1.008-3.265-2.048-4.125
			c-1.041-0.859-2.478-1.289-4.311-1.289c-1.509,0-2.645,0.32-3.408,0.959s-1.146,1.417-1.146,2.334c0,0.668,0.314,1.27,0.945,1.805
			c0.61,0.554,2.062,1.069,4.354,1.546c5.67,1.222,9.732,2.458,12.187,3.709c2.453,1.251,4.238,2.802,5.355,4.654
			s1.676,3.923,1.676,6.215c0,2.692-0.745,5.175-2.234,7.447c-1.489,2.272-3.57,3.995-6.243,5.169
			c-2.674,1.174-6.044,1.761-10.11,1.761c-7.142,0-12.087-1.375-14.836-4.124C924.203,75.018,922.646,71.524,922.284,67.285z"/>
	</g>
	<g>
		<path fill="#FFFFFF" d="M573.331,102.542l4.115-0.258c0.089,0.668,0.271,1.178,0.544,1.528c0.445,0.566,1.082,0.85,1.909,0.85
			c0.617,0,1.093-0.145,1.427-0.435s0.501-0.625,0.501-1.007c0-0.363-0.159-0.687-0.478-0.974c-0.318-0.286-1.057-0.557-2.215-0.812
			c-1.897-0.426-3.25-0.993-4.058-1.699c-0.814-0.707-1.222-1.607-1.222-2.702c0-0.719,0.208-1.399,0.625-2.039
			s1.044-1.142,1.881-1.508c0.837-0.366,1.984-0.549,3.441-0.549c1.789,0,3.152,0.333,4.091,0.998
			c0.938,0.665,1.497,1.723,1.675,3.174l-4.077,0.239c-0.108-0.63-0.335-1.088-0.683-1.375c-0.347-0.286-0.826-0.429-1.437-0.429
			c-0.503,0-0.882,0.106-1.136,0.32c-0.255,0.213-0.382,0.472-0.382,0.778c0,0.223,0.105,0.423,0.315,0.602
			c0.204,0.185,0.688,0.356,1.451,0.516c1.89,0.407,3.244,0.819,4.062,1.236s1.413,0.934,1.786,1.551
			c0.372,0.617,0.558,1.308,0.558,2.072c0,0.897-0.248,1.725-0.745,2.482c-0.496,0.758-1.19,1.332-2.081,1.723
			c-0.891,0.392-2.014,0.587-3.37,0.587c-2.38,0-4.029-0.458-4.945-1.375S573.452,103.956,573.331,102.542z"/>
		<path fill="#FFFFFF" d="M588.196,93.177h11.59v2.988h-7.255v2.225h6.73v2.854h-6.73v2.759h7.466v3.169h-11.8V93.177z"/>
		<path fill="#FFFFFF" d="M602.354,93.177h4.039l5.27,7.743v-7.743h4.076v13.996h-4.076l-5.241-7.685v7.685h-4.067V93.177z"/>
		<path fill="#FFFFFF" d="M618.669,93.177h6.425c1.266,0,2.29,0.172,3.069,0.515c0.779,0.344,1.424,0.837,1.933,1.48
			c0.509,0.643,0.878,1.391,1.107,2.244s0.344,1.756,0.344,2.711c0,1.496-0.17,2.655-0.511,3.479
			c-0.341,0.825-0.813,1.515-1.418,2.072c-0.604,0.557-1.254,0.928-1.947,1.112c-0.949,0.254-1.808,0.382-2.578,0.382h-6.425V93.177
			z M622.994,96.347v7.647h1.06c0.904,0,1.547-0.1,1.929-0.301c0.382-0.2,0.681-0.55,0.897-1.05c0.216-0.5,0.325-1.31,0.325-2.43
			c0-1.483-0.242-2.498-0.726-3.046c-0.484-0.547-1.286-0.821-2.406-0.821H622.994z"/>
		<path fill="#FFFFFF" d="M648.945,104.862h-4.91l-0.682,2.311h-4.416l5.26-13.996h4.717l5.259,13.996h-4.529L648.945,104.862z
			 M648.048,101.836l-1.544-5.031l-1.529,5.031H648.048z"/>
		<path fill="#FFFFFF" d="M662.07,93.177h4.325v10.549h6.75v3.446H662.07V93.177z"/>
		<path fill="#FFFFFF" d="M675.283,93.177h4.334v13.996h-4.334V93.177z"/>
		<path fill="#FFFFFF" d="M682.748,93.177h4.039l5.27,7.743v-7.743h4.076v13.996h-4.076l-5.241-7.685v7.685h-4.067V93.177z"/>
		<path fill="#FFFFFF" d="M698.997,93.177h11.59v2.988h-7.255v2.225h6.73v2.854h-6.73v2.759h7.465v3.169h-11.8V93.177z"/>
		<path fill="#FFFFFF" d="M712.878,103.316h4.153v3.198c0,1.177-0.245,2.106-0.735,2.788s-1.327,1.283-2.511,1.804l-0.907-1.699
			c0.738-0.344,1.246-0.686,1.522-1.026c0.277-0.34,0.432-0.743,0.463-1.208h-1.985V103.316z"/>
		<path fill="#FFFFFF" d="M726.139,93.177h7.189c1.565,0,2.738,0.372,3.518,1.117s1.17,1.805,1.17,3.179
			c0,1.413-0.426,2.517-1.275,3.313c-0.85,0.795-2.146,1.193-3.89,1.193h-2.368v5.193h-4.344V93.177z M730.482,99.144h1.061
			c0.834,0,1.419-0.145,1.756-0.435c0.338-0.29,0.506-0.66,0.506-1.112c0-0.439-0.146-0.812-0.438-1.117
			c-0.293-0.306-0.844-0.458-1.651-0.458h-1.232V99.144z"/>
		<path fill="#FFFFFF" d="M740.277,93.177h4.325v10.549h6.749v3.446h-11.074V93.177z"/>
		<path fill="#FFFFFF" d="M761.923,104.862h-4.909l-0.683,2.311h-4.416l5.261-13.996h4.718l5.259,13.996h-4.529L761.923,104.862z
			 M761.026,101.836l-1.545-5.031l-1.529,5.031H761.026z"/>
		<path fill="#FFFFFF" d="M768.556,93.177h4.038l5.27,7.743v-7.743h4.077v13.996h-4.077l-5.241-7.685v7.685h-4.066V93.177z"/>
		<path fill="#FFFFFF" d="M783.83,93.177h13.146v3.456h-4.41v10.54h-4.325v-10.54h-4.411V93.177z"/>
		<path fill="#FFFFFF" d="M814.059,104.862h-4.909l-0.683,2.311h-4.416l5.261-13.996h4.718l5.259,13.996h-4.529L814.059,104.862z
			 M813.162,101.836l-1.545-5.031l-1.529,5.031H813.162z"/>
		<path fill="#FFFFFF" d="M826.199,93.177h13.146v3.456h-4.41v10.54h-4.325v-10.54h-4.411V93.177z"/>
		<path fill="#FFFFFF" d="M841.36,107.173V93.177h7.208c1.337,0,2.358,0.114,3.064,0.344c0.706,0.229,1.276,0.654,1.709,1.274
			s0.649,1.376,0.649,2.267c0,0.777-0.166,1.447-0.497,2.01c-0.331,0.563-0.786,1.02-1.366,1.37
			c-0.369,0.223-0.875,0.407-1.519,0.554c0.515,0.172,0.891,0.344,1.126,0.516c0.159,0.114,0.39,0.36,0.691,0.736
			c0.302,0.375,0.504,0.666,0.605,0.869l2.095,4.056h-4.887l-2.312-4.277c-0.293-0.554-0.554-0.914-0.783-1.079
			c-0.312-0.216-0.665-0.324-1.06-0.324h-0.382v5.68H841.36z M845.704,98.848h1.823c0.197,0,0.579-0.064,1.146-0.191
			c0.286-0.058,0.52-0.204,0.701-0.439c0.182-0.235,0.272-0.506,0.272-0.812c0-0.452-0.144-0.798-0.43-1.041
			c-0.287-0.242-0.824-0.363-1.613-0.363h-1.9V98.848z"/>
		<path fill="#FFFFFF" d="M856.502,93.177h11.59v2.988h-7.256v2.225h6.73v2.854h-6.73v2.759h7.466v3.169h-11.8V93.177z"/>
		<path fill="#FFFFFF" d="M870.622,93.177h11.59v2.988h-7.256v2.225h6.73v2.854h-6.73v2.759h7.466v3.169h-11.8V93.177z"/>
	</g>
</g>
<g id="bush">
</g>
<g id="plane">
	<g>
		<g>
			<g>
				<path fill="#FAE576" d="M169.799,152.797c-1.021,0-1.997-0.58-2.456-1.565l-16.696-35.877c-0.631-1.355-0.043-2.965,1.312-3.596
					c1.356-0.631,2.965-0.042,3.596,1.312l16.696,35.877c0.631,1.355,0.043,2.965-1.312,3.596
					C170.57,152.715,170.181,152.797,169.799,152.797z"/>
			</g>
			<g>
				<path fill="#FFD409" d="M141.532,117.647h122.883c2.04,0,3.693-1.653,3.693-3.693l0,0c0-2.039-1.653-3.692-3.693-3.692H141.532
					c-2.04,0-3.693,1.653-3.693,3.692l0,0C137.839,115.994,139.493,117.647,141.532,117.647z"/>
			</g>
			<g>
				<path fill="#FFD409" d="M373.442,103.685l-38.326,33.029l-61.257-4.17l-37.708-15.651l-58.722,0.027l-15.738,14.699
					c0,0-37.433,0.896-37.936,10.112c-0.017,0.317-0.027,5.897-0.027,6.233c0,10.962,29.787,21.463,50.188,21.463
					c20.401,0,147.746,0,147.746,0l60.49-26.217l5.523-39.524H373.442z"/>
			</g>
			<g>
				<g>
					<path fill="#E09E1A" d="M227.477,165.958l-5.11,10.607l4.091,1.88l4.248-11.095c0.331-0.866-0.066-1.841-0.909-2.228l0,0
						C228.925,164.722,227.893,165.094,227.477,165.958z"/>
				</g>
				<g>
					<g>
						<circle fill="#333132" cx="222.334" cy="182.633" r="6.577"/>
					</g>
					<g>
						<circle fill="#BEC0C2" cx="222.335" cy="182.633" r="2.661"/>
					</g>
				</g>
				<g>
					<path fill="#E09E1A" d="M213.847,182.633c0.065-4.635,3.837-8.374,8.487-8.374s8.423,3.739,8.487,8.374H213.847z"/>
				</g>
			</g>
			<g>
				<g>
					<path fill="#E09E1A" d="M123.755,146.984c-0.017,0.317-0.027,0.643-0.027,0.979c0,10.962,29.787,21.463,50.188,21.463
						c20.401,0,150.235,0,150.235,0l51.779-22.442H123.755z"/>
				</g>
			</g>
			<g>
				<g>
					<path fill="#A3A5A8" d="M119.856,174.033L119.856,174.033c-2.082,0-3.698-1.813-3.461-3.881l2.786-24.312l-2.786-24.312
						c-0.237-2.067,1.38-3.88,3.461-3.88l0,0c2.069,0,3.682,1.793,3.464,3.851l-2.575,24.342l2.575,24.342
						C123.538,172.24,121.925,174.033,119.856,174.033z"/>
				</g>
				<g>
					<path fill="#A3A5A8" d="M123.755,141.73l-5.375,2.583c-1.279,0.614-1.277,2.436,0.003,3.048l5.713,2.729L123.755,141.73z"/>
				</g>
			</g>
		</g>
		<g>
			<polygon fill="#FFFFFF" points="165.143,132.543 177.782,119.42 194.562,119.42 194.562,136.714 179.853,136.714 			"/>
		</g>
		<g>
			<rect x="199.066" y="119.42" fill="#FFFFFF" width="25.782" height="17.294"/>
		</g>
		<g>
			<polygon fill="#FFFFFF" points="228.932,119.42 234.094,119.42 254.714,136.714 228.932,136.714 			"/>
		</g>
		<g>
			<path fill="#FAE676" d="M335.605,149.62h51.487c1.455,0,2.635-1.18,2.635-2.635l0,0c0-1.456-1.18-2.635-2.635-2.635h-51.487
				c-1.455,0-2.635,1.18-2.635,2.635l0,0C332.97,148.44,334.15,149.62,335.605,149.62z"/>
		</g>
		<g>
			<path fill="#FAE576" d="M308.725,156.633c-0.806,0-1.604-0.358-2.137-1.043l-31.14-39.972c-0.918-1.179-0.707-2.879,0.472-3.798
				s2.879-0.707,3.798,0.472l31.14,39.972c0.918,1.179,0.707,2.879-0.472,3.798C309.892,156.446,309.306,156.633,308.725,156.633z"
				/>
		</g>
		<g>
			<path fill="#E09E1A" d="M261.912,117.647h48.649c1.692,0,3.064-1.372,3.064-3.064v-1.256c0-1.692-1.372-3.064-3.064-3.064
				h-48.649c-1.692,0-3.064,1.372-3.064,3.064v1.256C258.847,116.275,260.219,117.647,261.912,117.647z"/>
		</g>
		<g>
			<g>
				<path fill="#FFD409" d="M243.015,165.958l5.11,10.607l-4.091,1.88l-4.248-11.095c-0.332-0.866,0.066-1.841,0.908-2.228l0,0
					C241.567,164.722,242.599,165.094,243.015,165.958z"/>
			</g>
			<g>
				<g>
					<circle fill="#333132" cx="248.157" cy="182.633" r="6.577"/>
				</g>
				<g>
					<circle fill="#BEC0C2" cx="248.157" cy="182.633" r="2.661"/>
				</g>
			</g>
			<g>
				<path fill="#FFD409" d="M256.645,182.633c-0.065-4.635-3.837-8.374-8.488-8.374s-8.422,3.739-8.487,8.374H256.645z"/>
			</g>
		</g>
		<g>
			<g>
				<path fill="#FFD409" d="M173.819,166.601l-3.928,11.1l-4.217-1.578l4.882-10.832c0.381-0.846,1.353-1.25,2.221-0.925l0,0
					C173.676,164.702,174.139,165.697,173.819,166.601z"/>
			</g>
			<g>
				<g>
					<circle fill="#333132" cx="166.17" cy="182.237" r="6.577"/>
				</g>
				<g>
					<circle fill="#BEC0C2" cx="166.17" cy="182.237" r="2.661"/>
				</g>
			</g>
			<g>
				<path fill="#FFD409" d="M175.044,182.347c-0.097-4.634-3.895-8.347-8.545-8.314c-4.65,0.032-8.396,3.797-8.429,8.432
					L175.044,182.347z"/>
			</g>
		</g>
		<g>
			<path fill="#E09E1A" d="M215.756,156.633c-0.611,0-1.226-0.206-1.732-0.628c-1.148-0.957-1.302-2.664-0.345-3.812l33.342-39.972
				c0.958-1.149,2.664-1.303,3.812-0.345c1.148,0.957,1.302,2.664,0.345,3.812l-33.342,39.972
				C217.301,156.302,216.531,156.633,215.756,156.633z"/>
		</g>
	</g>
</g>
<g id="sun">
	<g>
		<circle fill="#FDE20D" cx="1181.687" cy="188.713" r="51.999"/>
	</g>
</g>
<g id="clouds">
	<g>
		<path fill="#FFFFFF" d="M277.675,300.306c-0.321,0-0.639,0.014-0.958,0.024c-4.621-23.669-25.466-41.532-50.487-41.532
			c-23.324,0-43.02,15.523-49.327,36.801c-0.701-0.043-1.406-0.067-2.118-0.067c-18.798,0-34.037,15.239-34.037,34.037
			s15.239,34.037,34.037,34.037c9.347,0,17.813-3.769,23.964-9.868c7.951,5.034,17.375,7.95,27.481,7.95
			c11.853,0,22.768-4.011,31.467-10.746c5.23,4.891,12.252,7.89,19.978,7.89c16.161,0,29.263-13.102,29.263-29.263
			S293.836,300.306,277.675,300.306z"/>
	</g>
	<g>
		<path fill="#FFFFFF" d="M1298.631,235.808c-3.191,0-6.24,0.595-9.053,1.67c-6.504-7.264-15.953-11.836-26.471-11.836
			c-2.451,0-4.846,0.249-7.158,0.722c-8.123-12.727-22.369-21.167-38.586-21.167c-25.264,0-45.744,20.48-45.744,45.745
			c0,25.265,20.48,45.745,45.744,45.745c8.996,0,17.383-2.599,24.457-7.083c5.934,4.448,13.303,7.083,21.287,7.083
			c10.518,0,19.967-4.572,26.471-11.836c2.812,1.076,5.861,1.67,9.053,1.67c14.004,0,25.355-11.353,25.355-25.357
			C1323.986,247.16,1312.635,235.808,1298.631,235.808z"/>
	</g>
	<g>
		<path fill="#FFFFFF" d="M774.522,219.572c-0.174,0-0.344,0.009-0.516,0.013c-2.756-15.677-16.432-27.593-32.898-27.593
			c-18.453,0-33.412,14.959-33.412,33.413c0,0.636,0.021,1.267,0.057,1.895c-6.849,2.232-11.799,8.666-11.799,16.26
			c0,9.445,7.656,17.102,17.102,17.102c5.018,0,9.531-2.161,12.658-5.603c4.609,2.397,9.842,3.76,15.395,3.76
			c4.619,0,9.02-0.938,13.02-2.632c4.23,6.817,11.781,11.36,20.395,11.36c13.248,0,23.986-10.74,23.986-23.987
			C798.509,230.311,787.771,219.572,774.522,219.572z"/>
	</g>
	<g>
		<g>
			<path fill="#FFFFFF" d="M392.98,154.169c-3.017,1.562-3.855,6.042-1.88,8.72c-0.968,0.239-1.936,0.479-2.904,0.718
				c-1.121,1.579-0.021,3.962,1.727,4.795c1.748,0.833,3.813,0.527,5.685,0.033c1.84-0.486,3.861-1.354,4.466-3.159
				c0.301-0.898-0.11-1.918-0.776-2.563c0.412-0.141,0.797-0.366,1.102-0.673c0.886-0.893,1.169-2.256,0.999-3.502
				C400.897,154.872,396.266,152.468,392.98,154.169z"/>
		</g>
		<g>
			<path fill="#FFFFFF" d="M457.052,141.854c-7.525-6.009-18.786-6.844-27.115-2.01c-2.938,1.705-5.659,4.307-6.195,7.661
				c-0.34,2.13,0.595,4.469,2.188,5.822c-1.427-0.269-2.902-0.288-4.331-0.022c-1.497,0.278-3.148,1.088-3.42,2.587
				c-0.257,1.413,0.925,2.765,2.289,3.215c1.363,0.45,2.846,0.227,4.264,0l0.402-0.025c-0.113,0.144-0.218,0.293-0.303,0.453
				c-1.398,2.611-0.541,6.037,1.513,8.172s5.06,3.13,8.012,3.373c4.288,0.353,8.842-0.854,11.876-3.903
				c2.173-2.183,3.365-5.383,3.107-8.407c0.303-0.022,0.604-0.051,0.897-0.087c4.945-0.608,10.735-2.882,11.473-7.809
				C462.235,147.366,459.823,144.067,457.052,141.854z"/>
		</g>
		<g>
			<path fill="#FFFFFF" d="M574.047,179.914c-2.486-2.357-5.875-3.519-9.234-4.188c-3.237-0.644-6.745-0.856-9.697,0.618
				c-2.952,1.474-5.022,5.107-3.789,8.168l0.315-0.348c-1.544,2.551-1.511,6.105,0.402,8.442c2.472,3.02,7.56,3.377,10.43,0.733
				c0.043-0.04,0.083-0.086,0.124-0.129c0.685,0.455,1.523,0.722,2.338,0.896c4.512,0.966,10.074-0.563,11.737-4.867
				C577.908,186.043,576.534,182.27,574.047,179.914z"/>
		</g>
	</g>
</g>
<g id="title">
</g>
</svg>
