<?xml version="1.0" encoding="utf-8"?>
<!-- Generator: Adobe Illustrator 16.0.0, SVG Export Plug-In . SVG Version: 6.00 Build 0)  -->
<!DOCTYPE svg PUBLIC "-//W3C//DTD SVG 1.1//EN" "http://www.w3.org/Graphics/SVG/1.1/DTD/svg11.dtd">
<svg version="1.1" id="Layer_1" xmlns="http://www.w3.org/2000/svg" xmlns:xlink="http://www.w3.org/1999/xlink" x="0px" y="0px"
	 width="300px" height="300px" viewBox="0 0 300 300" enable-background="new 0 0 300 300" xml:space="preserve">
<rect fill="#E5E5D6" width="300" height="300"/>
<g>
	<g>
		<rect x="190.142" y="80.176" fill="#C17E3B" width="3.254" height="5.775"/>
	</g>
	<g>
		<rect x="192.329" y="80.176" fill="#A66E30" width="1.066" height="5.775"/>
	</g>
	<g>
		<polyline fill="#66A335" points="191.771,54.712 185.321,74.931 186.54,74.931 185.321,78.681 186.782,78.681 186.415,80.498 
			191.798,80.498 		"/>
	</g>
	<g>
		<polyline fill="#578C2D" points="191.767,54.712 198.213,74.931 196.997,74.931 198.213,78.681 196.756,78.681 197.119,80.498 
			191.74,80.498 		"/>
	</g>
</g>
<g>
	<g>
		<rect x="81.893" y="86.401" fill="#C17E3B" width="3.255" height="5.775"/>
	</g>
	<g>
		<rect x="84.083" y="86.401" fill="#A66E30" width="1.065" height="5.775"/>
	</g>
	<g>
		<polyline fill="#66A335" points="83.522,60.94 77.075,81.159 78.292,81.159 77.075,84.906 78.535,84.906 78.169,86.725 
			83.55,86.725 		"/>
	</g>
	<g>
		<polyline fill="#578C2D" points="83.52,60.94 89.967,81.159 88.75,81.159 89.967,84.906 88.507,84.906 88.872,86.725 
			83.492,86.725 		"/>
	</g>
</g>
<g>
	<g>
		<rect x="206.434" y="91.146" fill="#C17E3B" width="3.662" height="6.5"/>
	</g>
	<g>
		<rect x="208.896" y="91.146" fill="#A66E30" width="1.199" height="6.5"/>
	</g>
	<g>
		<polyline fill="#66A335" points="208.264,62.563 206.318,67.497 207.291,67.497 206.318,69.185 204.233,74.116 206.249,74.116 
			203.399,75.933 201.87,81.125 205.066,81.125 200.897,85.021 198.532,91.512 208.264,91.512 		"/>
	</g>
	<g>
		<polyline fill="#578C2D" points="208.264,62.563 210.212,67.497 209.239,67.497 210.212,69.185 212.295,74.116 210.28,74.116 
			213.13,75.933 214.66,81.125 211.462,81.125 215.633,85.021 217.993,91.512 208.264,91.512 		"/>
	</g>
</g>
<g>
	<g>
		<rect x="108.514" y="74.131" fill="#C17E3B" width="3.664" height="6.5"/>
	</g>
	<g>
		<rect x="110.978" y="74.131" fill="#A66E30" width="1.199" height="6.5"/>
	</g>
	<g>
		<polyline fill="#66A335" points="110.346,45.548 108.399,50.481 109.372,50.481 108.399,52.17 106.314,57.1 108.33,57.1 
			105.48,58.917 103.951,64.11 107.148,64.11 102.978,68.006 100.615,74.497 110.346,74.497 		"/>
	</g>
	<g>
		<polyline fill="#578C2D" points="110.346,45.548 112.292,50.481 111.319,50.481 112.292,52.17 114.376,57.1 112.361,57.1 
			115.211,58.917 116.74,64.11 113.542,64.11 117.713,68.006 120.076,74.497 110.346,74.497 		"/>
	</g>
</g>
<g>
	<path fill="#FFFFFF" d="M52.304,80.189l-8.178,1.876H85.4c-0.39,0-9.562-1.505-9.172-1.505c0.389,0,3.071-1.161,3.071-1.161h-5.58
		c0,0,5.192-3.562,0.519-5.901c-4.672-2.339-9.215,1.055-10.644,2.509c0,0-2.552-4.125-6.007,0.255
		C57.587,76.262,49.573,73.686,52.304,80.189z"/>
</g>
<g>
	<g>
		<path fill="#DCE8C2" d="M268.272,206.604c0,3.7-12.343,6.695-27.571,6.695s-27.571-2.995-27.571-6.695
			c0-3.701,12.343-6.699,27.571-6.699S268.272,202.902,268.272,206.604z"/>
	</g>
	<g>
		<rect x="234.59" y="184.914" fill="#C17E3B" width="12.224" height="21.689"/>
	</g>
	<g>
		<rect x="242.812" y="184.914" fill="#A66E30" width="4.002" height="21.689"/>
	</g>
	<g>
		<polyline fill="#66A335" points="240.701,89.289 219.306,172.925 223.813,172.791 219.306,186.129 240.701,186.129 		"/>
	</g>
	<g>
		<polyline fill="#578C2D" points="240.701,89.289 262.097,172.925 257.591,172.791 262.097,186.129 240.701,186.129 		"/>
	</g>
</g>
<g>
	<g>
		<path fill="#999999" d="M87.111,104.877c0,0-1.086-1.729-2.282-2.283c-1.194-0.553-2.825-0.299-2.97,0
			c-0.146,0.301-1.268,2.352-0.942,3.042c0.328,0.692,2.391,0.762,2.682,0.808C83.889,106.49,88.2,106.606,87.111,104.877z"/>
	</g>
	<g>
		<path fill="#888888" d="M86.352,106.199c0,0,1.159-0.712,0-1.657c-1.16-0.947-0.798-0.9-1.196-1.016
			c-0.398-0.113-0.834-0.206-1.341,0.301c-0.508,0.507-0.471,0.507-1.124,0.553c-0.651,0.046-0.762,0.644-0.762,1.13
			c0,0.484-0.452,0.559-0.452,0.559S84.002,106.876,86.352,106.199z"/>
	</g>
	<g>
		<path fill="#656666" d="M86.241,106.243c0,0-0.821-0.309-1.596-0.463c-0.772-0.152-1.471-0.507-1.93-0.198
			c-0.46,0.306-0.943,0.398-0.775,0.568C82.11,106.32,84.486,106.717,86.241,106.243z"/>
	</g>
	<g>
		<path fill="#999999" d="M67.216,100.852c0,0,2.187-3.482,4.592-4.594c2.406-1.114,5.688-0.602,5.98,0s2.552,4.732,1.895,6.125
			c-0.656,1.39-4.812,1.528-5.396,1.624C73.703,104.097,65.028,104.331,67.216,100.852z"/>
	</g>
	<g>
		<path fill="#888888" d="M68.747,103.516c0,0-2.334-1.439,0-3.343c2.331-1.901,1.604-1.809,2.405-2.041
			c0.803-0.231,1.678-0.417,2.697,0.605c1.022,1.021,0.95,1.021,2.262,1.114c1.313,0.092,1.53,1.299,1.53,2.272
			c0,0.976,0.911,1.127,0.911,1.127S73.473,104.872,68.747,103.516z"/>
	</g>
	<g>
		<path fill="#656666" d="M68.971,103.603c0,0,1.652-0.623,3.208-0.934c1.554-0.309,2.965-1.019,3.888-0.402
			c0.925,0.621,1.897,0.806,1.556,1.146C77.284,103.752,72.501,104.552,68.971,103.603z"/>
	</g>
</g>
<g>
	<linearGradient id="SVGID_1_" gradientUnits="userSpaceOnUse" x1="108.2725" y1="115.2734" x2="108.2725" y2="91.3735">
		<stop  offset="0" style="stop-color:#626366"/>
		<stop  offset="0.5" style="stop-color:#464648"/>
		<stop  offset="0.5" style="stop-color:#5D5E60"/>
		<stop  offset="1" style="stop-color:#535355"/>
	</linearGradient>
	<ellipse fill="url(#SVGID_1_)" cx="108.272" cy="103.324" rx="12.797" ry="11.95"/>
	<polygon fill="#FFFFFF" points="102.456,103.324 107.399,100.658 112.344,97.992 112.344,103.324 112.344,108.656 107.399,105.99 	
		"/>
</g>
<g>
	<linearGradient id="SVGID_2_" gradientUnits="userSpaceOnUse" x1="185.2451" y1="115.2734" x2="185.2451" y2="91.3735">
		<stop  offset="0" style="stop-color:#626366"/>
		<stop  offset="0.5" style="stop-color:#464648"/>
		<stop  offset="0.5" style="stop-color:#5D5E60"/>
		<stop  offset="1" style="stop-color:#535355"/>
	</linearGradient>
	<ellipse fill="url(#SVGID_2_)" cx="185.245" cy="103.324" rx="12.797" ry="11.951"/>
	<polygon fill="#FFFFFF" points="191.062,103.324 186.118,105.99 181.175,108.656 181.175,103.324 181.175,97.993 186.118,100.658 	
		"/>
</g>
<g>
	<linearGradient id="SVGID_3_" gradientUnits="userSpaceOnUse" x1="147.3438" y1="115.2734" x2="147.3438" y2="91.3735">
		<stop  offset="0" style="stop-color:#626366"/>
		<stop  offset="0.5" style="stop-color:#464648"/>
		<stop  offset="0.5" style="stop-color:#5D5E60"/>
		<stop  offset="1" style="stop-color:#535355"/>
	</linearGradient>
	<ellipse fill="url(#SVGID_3_)" cx="147.344" cy="103.323" rx="12.797" ry="11.95"/>
	<polygon fill="#FFFFFF" points="147.344,108.755 144.489,104.137 141.635,99.521 147.344,99.521 153.054,99.521 150.197,104.137 	
		"/>
</g>
<g>
	<linearGradient id="SVGID_4_" gradientUnits="userSpaceOnUse" x1="147.3438" y1="84.6484" x2="147.3438" y2="60.748">
		<stop  offset="0" style="stop-color:#626366"/>
		<stop  offset="0.5" style="stop-color:#464648"/>
		<stop  offset="0.5" style="stop-color:#5D5E60"/>
		<stop  offset="1" style="stop-color:#535355"/>
	</linearGradient>
	<ellipse fill="url(#SVGID_4_)" cx="147.344" cy="72.698" rx="12.796" ry="11.95"/>
	<polygon fill="#FFFFFF" points="147.344,67.268 150.199,71.884 153.053,76.502 147.344,76.501 141.635,76.501 144.489,71.884 	"/>
</g>
<g>
	<path fill="#578C2D" d="M132.799,50.484l2.335,3.002h-1.393l-2.154-2.884h-0.205v2.884h-1.139v-7.045h1.334
		c0.997,0,1.717,0.175,2.159,0.524c0.489,0.39,0.733,0.903,0.733,1.542c0,0.499-0.153,0.929-0.459,1.287
		C133.704,50.154,133.3,50.384,132.799,50.484z M131.382,49.677h0.361c1.078,0,1.617-0.385,1.617-1.155
		c0-0.721-0.524-1.081-1.573-1.081h-0.405V49.677z"/>
	<path fill="#578C2D" d="M135.721,49.932c0-0.991,0.39-1.844,1.168-2.555c0.775-0.712,1.707-1.068,2.795-1.068
		c1.075,0,1.997,0.359,2.767,1.077c0.771,0.718,1.158,1.58,1.158,2.587c0,1.014-0.389,1.873-1.163,2.578
		c-0.779,0.709-1.719,1.063-2.82,1.063c-0.974,0-1.849-0.314-2.624-0.944C136.147,51.974,135.721,51.061,135.721,49.932z
		 M136.869,49.945c0,0.779,0.28,1.419,0.841,1.921c0.557,0.502,1.2,0.753,1.93,0.753c0.792,0,1.46-0.255,2.004-0.767
		c0.544-0.517,0.816-1.146,0.816-1.889c0-0.751-0.27-1.381-0.807-1.89c-0.534-0.511-1.195-0.767-1.984-0.767
		c-0.785,0-1.447,0.256-1.988,0.767C137.14,48.58,136.869,49.203,136.869,49.945z"/>
	<path fill="#578C2D" d="M146.852,47.44v6.046h-1.139V47.44h-1.734v-0.999h4.604v0.999H146.852z"/>
	<path fill="#578C2D" d="M153.62,51.775h-3.229l-0.841,1.711h-1.227l3.733-7.488l3.602,7.488h-1.246L153.62,51.775z M153.156,50.776
		l-1.119-2.396l-1.173,2.396H153.156z"/>
	<path fill="#578C2D" d="M158.262,47.44v6.046h-1.139V47.44h-1.734v-0.999h4.604v0.999H158.262z"/>
	<path fill="#578C2D" d="M165.172,47.44h-3.024v1.693h2.937v0.999h-2.937v2.354h3.024v0.999h-4.163v-7.045h4.163V47.44z"/>
</g>
<g>
	<path fill="#578C2D" d="M133.064,131.979v-7.046h1.583c0.759,0,1.358,0.07,1.798,0.21c0.473,0.137,0.901,0.37,1.285,0.698
		c0.779,0.663,1.168,1.535,1.168,2.615c0,1.083-0.405,1.959-1.217,2.628c-0.407,0.335-0.834,0.567-1.28,0.698
		c-0.417,0.131-1.008,0.196-1.773,0.196H133.064z M134.203,130.979h0.513c0.512,0,0.937-0.051,1.275-0.151
		c0.339-0.106,0.645-0.274,0.919-0.506c0.56-0.478,0.84-1.1,0.84-1.866c0-0.773-0.276-1.399-0.83-1.88
		c-0.499-0.43-1.233-0.644-2.204-0.644h-0.513V130.979z"/>
	<path fill="#578C2D" d="M139.954,128.424c0-0.992,0.39-1.844,1.168-2.556c0.775-0.712,1.707-1.067,2.795-1.067
		c1.075,0,1.997,0.358,2.767,1.077c0.771,0.718,1.158,1.58,1.158,2.587c0,1.013-0.389,1.872-1.163,2.578
		c-0.779,0.709-1.719,1.063-2.82,1.063c-0.974,0-1.849-0.315-2.624-0.944C140.381,130.465,139.954,129.553,139.954,128.424z
		 M141.103,128.438c0,0.778,0.28,1.419,0.841,1.921c0.557,0.502,1.2,0.753,1.93,0.753c0.792,0,1.46-0.255,2.004-0.767
		c0.544-0.517,0.816-1.146,0.816-1.889c0-0.752-0.27-1.382-0.807-1.89c-0.534-0.511-1.195-0.767-1.984-0.767
		c-0.785,0-1.447,0.256-1.988,0.767C141.373,127.071,141.103,127.695,141.103,128.438z"/>
	<path fill="#578C2D" d="M149.321,124.933l1.965,4.71l2.052-5.052l1.965,5.052l2.086-4.71h1.236l-3.371,7.493l-1.94-4.992
		l-2.022,4.997l-3.206-7.498H149.321z"/>
	<path fill="#578C2D" d="M159.564,131.979v-7.524l5.502,5.375v-4.896h1.139v7.475l-5.502-5.361v4.933H159.564z"/>
</g>
<g>
	<path fill="#578C2D" d="M73.471,112.154v6.047h2.219v0.999h-3.357v-7.046H73.471z"/>
	<path fill="#578C2D" d="M80.933,113.154h-3.025v1.692h2.937v1h-2.937v2.354h3.025v0.999H76.77v-7.046h4.164V113.154z"/>
	<path fill="#578C2D" d="M86.196,113.154h-2.629v1.692h2.536v1h-2.536v3.354h-1.139v-7.046h3.768V113.154z"/>
	<path fill="#578C2D" d="M89.597,113.154v6.046h-1.139v-6.046h-1.735v-1h4.603v1H89.597z"/>
</g>
<g>
	<path fill="#578C2D" d="M199.435,119.085l2.335,3.003h-1.393l-2.154-2.884h-0.205v2.884h-1.139v-7.046h1.334
		c0.997,0,1.717,0.176,2.159,0.525c0.489,0.39,0.733,0.903,0.733,1.542c0,0.499-0.153,0.928-0.459,1.287
		C200.34,118.755,199.936,118.985,199.435,119.085z M198.018,118.277h0.361c1.078,0,1.617-0.385,1.617-1.154
		c0-0.721-0.524-1.081-1.573-1.081h-0.405V118.277z"/>
	<path fill="#578C2D" d="M204.043,115.042v7.046h-1.139v-7.046H204.043z"/>
	<path fill="#578C2D" d="M209.735,118.419h3.117v0.232c0,0.529-0.066,0.998-0.2,1.406c-0.131,0.377-0.351,0.729-0.66,1.059
		c-0.7,0.736-1.591,1.104-2.673,1.104c-1.055,0-1.959-0.356-2.712-1.068c-0.752-0.715-1.129-1.572-1.129-2.573
		c0-1.022,0.383-1.89,1.148-2.602c0.766-0.715,1.697-1.072,2.795-1.072c0.59,0,1.141,0.112,1.652,0.338
		c0.488,0.226,0.969,0.59,1.441,1.095l-0.812,0.726c-0.619-0.77-1.373-1.154-2.263-1.154c-0.798,0-1.467,0.257-2.008,0.771
		c-0.541,0.505-0.812,1.138-0.812,1.898c0,0.784,0.302,1.431,0.904,1.939c0.563,0.471,1.175,0.707,1.832,0.707
		c0.561,0,1.064-0.177,1.511-0.529c0.446-0.356,0.695-0.782,0.747-1.278h-1.881V118.419z"/>
	<path fill="#578C2D" d="M215.423,117.799h3.254v-2.757h1.139v7.046h-1.139v-3.29h-3.254v3.29h-1.139v-7.046h1.139V117.799z"/>
	<path fill="#578C2D" d="M223.705,116.042v6.046h-1.139v-6.046h-1.734v-1h4.604v1H223.705z"/>
</g>
<rect x="60.255" y="143.837" fill="#EAF2E4" width="179.49" height="44.279"/>
<g>
	<path fill="#578C2D" d="M86.602,153.182h0.944l3.597,8.708h-1.171l-0.86-2.14h-4.23l-0.873,2.14h-1.135L86.602,153.182z
		 M87.056,154.51h-0.024l-1.757,4.28h3.454L87.056,154.51z"/>
	<path fill="#578C2D" d="M92.578,156.945h-1.219v-0.812h1.219v-1.292c0-0.352,0.032-0.674,0.096-0.965
		c0.063-0.291,0.173-0.543,0.329-0.757c0.155-0.213,0.36-0.379,0.616-0.498c0.255-0.118,0.569-0.178,0.944-0.178
		c0.12,0,0.247,0.012,0.382,0.036c0.136,0.025,0.247,0.062,0.335,0.111l-0.132,0.86c-0.223-0.082-0.434-0.123-0.633-0.123
		c-0.239,0-0.426,0.043-0.562,0.13c-0.136,0.086-0.237,0.205-0.305,0.356c-0.068,0.151-0.108,0.334-0.12,0.547
		c-0.012,0.214-0.018,0.443-0.018,0.689v1.082h1.362v0.812H93.51v4.944h-0.932V156.945z"/>
	<path fill="#578C2D" d="M98.923,156.945h-1.649v2.878c0,0.188,0.004,0.363,0.012,0.522c0.008,0.16,0.04,0.3,0.096,0.419
		c0.056,0.118,0.139,0.213,0.251,0.282c0.111,0.07,0.271,0.104,0.478,0.104c0.135,0,0.274-0.016,0.418-0.049
		c0.144-0.032,0.279-0.082,0.406-0.147l0.036,0.873c-0.16,0.074-0.337,0.127-0.532,0.16c-0.195,0.032-0.381,0.049-0.556,0.049
		c-0.335,0-0.602-0.045-0.801-0.135c-0.199-0.091-0.355-0.218-0.466-0.382c-0.112-0.164-0.185-0.366-0.221-0.608
		c-0.036-0.242-0.054-0.511-0.054-0.806v-3.161h-1.219v-0.812h1.219v-1.636h0.932v1.636h1.649V156.945z"/>
	<path fill="#578C2D" d="M105.066,160.844c-0.334,0.443-0.701,0.753-1.1,0.929c-0.398,0.177-0.86,0.265-1.386,0.265
		c-0.438,0-0.833-0.08-1.183-0.239c-0.351-0.16-0.647-0.376-0.89-0.646c-0.243-0.271-0.431-0.59-0.562-0.959
		s-0.197-0.763-0.197-1.181c0-0.442,0.072-0.851,0.215-1.224s0.342-0.693,0.598-0.96c0.255-0.266,0.558-0.473,0.908-0.621
		c0.351-0.147,0.733-0.221,1.147-0.221c0.391,0,0.749,0.067,1.076,0.203c0.327,0.135,0.607,0.332,0.843,0.59
		c0.235,0.259,0.416,0.574,0.543,0.947s0.191,0.797,0.191,1.272v0.308h-4.518c0.016,0.246,0.074,0.482,0.173,0.707
		c0.1,0.226,0.229,0.423,0.389,0.591c0.159,0.168,0.346,0.301,0.562,0.399s0.45,0.147,0.705,0.147c0.406,0,0.749-0.073,1.028-0.221
		s0.53-0.365,0.753-0.652L105.066,160.844z M104.265,158.495c-0.016-0.492-0.171-0.886-0.466-1.181
		c-0.294-0.295-0.701-0.442-1.219-0.442c-0.518,0-0.936,0.147-1.255,0.442s-0.51,0.688-0.574,1.181H104.265z"/>
	<path fill="#578C2D" d="M106.715,157.499c0-0.263-0.008-0.509-0.024-0.738s-0.024-0.438-0.024-0.627h0.884
		c0,0.155,0.004,0.312,0.012,0.467c0.008,0.156,0.012,0.316,0.012,0.48h0.024c0.064-0.14,0.153-0.275,0.269-0.406
		c0.115-0.131,0.253-0.248,0.412-0.351c0.16-0.103,0.339-0.185,0.538-0.246s0.414-0.092,0.646-0.092
		c0.063,0,0.127,0.004,0.191,0.012c0.064,0.009,0.127,0.025,0.191,0.05l-0.06,0.972c-0.159-0.05-0.327-0.074-0.502-0.074
		c-0.573,0-0.99,0.19-1.249,0.572c-0.259,0.381-0.389,0.903-0.389,1.568v2.804h-0.932V157.499z"/>
	<path fill="#578C2D" d="M119.239,160.844c-0.334,0.443-0.701,0.753-1.1,0.929c-0.398,0.177-0.86,0.265-1.386,0.265
		c-0.438,0-0.833-0.08-1.183-0.239c-0.351-0.16-0.647-0.376-0.89-0.646c-0.243-0.271-0.431-0.59-0.562-0.959
		s-0.197-0.763-0.197-1.181c0-0.442,0.072-0.851,0.215-1.224s0.342-0.693,0.598-0.96c0.255-0.266,0.558-0.473,0.908-0.621
		c0.351-0.147,0.733-0.221,1.147-0.221c0.391,0,0.749,0.067,1.076,0.203c0.327,0.135,0.607,0.332,0.843,0.59
		c0.235,0.259,0.416,0.574,0.543,0.947s0.191,0.797,0.191,1.272v0.308h-4.518c0.016,0.246,0.074,0.482,0.173,0.707
		c0.1,0.226,0.229,0.423,0.389,0.591c0.159,0.168,0.346,0.301,0.562,0.399s0.45,0.147,0.705,0.147c0.406,0,0.749-0.073,1.028-0.221
		s0.53-0.365,0.753-0.652L119.239,160.844z M118.438,158.495c-0.016-0.492-0.171-0.886-0.466-1.181
		c-0.294-0.295-0.701-0.442-1.219-0.442c-0.518,0-0.936,0.147-1.255,0.442s-0.51,0.688-0.574,1.181H118.438z"/>
	<path fill="#578C2D" d="M123.434,161.89h-1.027l-2.283-5.756h1.087l1.745,4.514h0.024l1.661-4.514h1.004L123.434,161.89z"/>
	<path fill="#578C2D" d="M131.645,160.844c-0.335,0.443-0.701,0.753-1.1,0.929c-0.398,0.177-0.86,0.265-1.387,0.265
		c-0.438,0-0.832-0.08-1.183-0.239c-0.351-0.16-0.647-0.376-0.89-0.646c-0.243-0.271-0.431-0.59-0.562-0.959
		s-0.197-0.763-0.197-1.181c0-0.442,0.072-0.851,0.215-1.224s0.342-0.693,0.598-0.96c0.255-0.266,0.558-0.473,0.908-0.621
		c0.351-0.147,0.733-0.221,1.147-0.221c0.391,0,0.749,0.067,1.076,0.203c0.326,0.135,0.607,0.332,0.842,0.59
		c0.235,0.259,0.417,0.574,0.544,0.947c0.128,0.373,0.191,0.797,0.191,1.272v0.308h-4.518c0.016,0.246,0.074,0.482,0.173,0.707
		c0.1,0.226,0.229,0.423,0.389,0.591c0.159,0.168,0.346,0.301,0.562,0.399s0.45,0.147,0.705,0.147c0.406,0,0.749-0.073,1.028-0.221
		c0.278-0.147,0.529-0.365,0.753-0.652L131.645,160.844z M130.844,158.495c-0.016-0.492-0.172-0.886-0.466-1.181
		c-0.295-0.295-0.702-0.442-1.22-0.442s-0.936,0.147-1.254,0.442s-0.51,0.688-0.574,1.181H130.844z"/>
	<path fill="#578C2D" d="M133.294,157.499c0-0.263-0.009-0.509-0.024-0.738s-0.023-0.438-0.023-0.627h0.884
		c0,0.155,0.004,0.312,0.012,0.467c0.008,0.156,0.013,0.316,0.013,0.48h0.023c0.063-0.14,0.153-0.275,0.27-0.406
		c0.115-0.131,0.252-0.248,0.412-0.351c0.159-0.103,0.338-0.185,0.537-0.246s0.415-0.092,0.646-0.092
		c0.063,0,0.128,0.004,0.191,0.012c0.063,0.009,0.127,0.025,0.191,0.05l-0.06,0.972c-0.16-0.05-0.327-0.074-0.502-0.074
		c-0.574,0-0.99,0.19-1.249,0.572c-0.259,0.381-0.389,0.903-0.389,1.568v2.804h-0.932V157.499z"/>
	<path fill="#578C2D" d="M139.556,163.206c-0.095,0.245-0.192,0.469-0.292,0.67s-0.22,0.373-0.358,0.517
		c-0.14,0.144-0.308,0.254-0.502,0.332c-0.195,0.078-0.433,0.117-0.712,0.117c-0.135,0-0.276-0.009-0.424-0.025
		c-0.147-0.016-0.285-0.057-0.412-0.123l0.119-0.836c0.096,0.041,0.195,0.067,0.299,0.08s0.223,0.019,0.358,0.019
		c0.303,0,0.526-0.086,0.67-0.259c0.143-0.172,0.267-0.401,0.37-0.688l0.382-1.082l-2.318-5.793h1.088l1.732,4.514h0.024
		l1.661-4.514h1.016L139.556,163.206z"/>
	<path fill="#578C2D" d="M146.666,152.592h0.933v9.298h-0.933V152.592z"/>
	<path fill="#578C2D" d="M149.331,153.883c0-0.188,0.065-0.353,0.197-0.492c0.132-0.139,0.293-0.209,0.484-0.209
		c0.19,0,0.353,0.07,0.483,0.209c0.132,0.14,0.197,0.304,0.197,0.492c0,0.205-0.063,0.373-0.191,0.504
		c-0.127,0.132-0.291,0.197-0.489,0.197c-0.2,0-0.363-0.065-0.49-0.197C149.395,154.256,149.331,154.088,149.331,153.883z
		 M149.546,156.134h0.933v5.756h-0.933V156.134z"/>
	<path fill="#578C2D" d="M152.331,157.499c0-0.263-0.009-0.509-0.024-0.738s-0.023-0.438-0.023-0.627h0.884
		c0,0.155,0.004,0.312,0.012,0.467c0.008,0.156,0.013,0.316,0.013,0.48h0.023c0.063-0.14,0.153-0.275,0.27-0.406
		c0.115-0.131,0.252-0.248,0.412-0.351c0.159-0.103,0.338-0.185,0.537-0.246s0.415-0.092,0.646-0.092
		c0.366,0,0.684,0.058,0.95,0.172c0.267,0.115,0.488,0.274,0.663,0.479c0.176,0.205,0.305,0.453,0.389,0.744
		s0.126,0.609,0.126,0.953v3.555h-0.933v-3.456c0-0.483-0.104-0.865-0.311-1.144c-0.207-0.279-0.53-0.418-0.968-0.418
		c-0.304,0-0.564,0.053-0.783,0.159s-0.398,0.259-0.538,0.455c-0.14,0.197-0.243,0.431-0.311,0.701s-0.102,0.57-0.102,0.898v2.804
		h-0.932V157.499z"/>
	<path fill="#578C2D" d="M163.971,160.844c-0.335,0.443-0.701,0.753-1.1,0.929c-0.398,0.177-0.86,0.265-1.386,0.265
		c-0.438,0-0.833-0.08-1.184-0.239c-0.351-0.16-0.647-0.376-0.891-0.646s-0.43-0.59-0.562-0.959s-0.197-0.763-0.197-1.181
		c0-0.442,0.072-0.851,0.215-1.224c0.144-0.373,0.343-0.693,0.598-0.96c0.255-0.266,0.558-0.473,0.908-0.621
		c0.351-0.147,0.733-0.221,1.147-0.221c0.391,0,0.749,0.067,1.076,0.203c0.326,0.135,0.607,0.332,0.842,0.59
		c0.235,0.259,0.417,0.574,0.544,0.947c0.128,0.373,0.191,0.797,0.191,1.272v0.308h-4.518c0.016,0.246,0.073,0.482,0.174,0.707
		c0.1,0.226,0.229,0.423,0.388,0.591s0.347,0.301,0.562,0.399c0.216,0.099,0.45,0.147,0.706,0.147c0.406,0,0.748-0.073,1.027-0.221
		c0.278-0.147,0.529-0.365,0.753-0.652L163.971,160.844z M163.17,158.495c-0.016-0.492-0.172-0.886-0.466-1.181
		c-0.295-0.295-0.701-0.442-1.219-0.442c-0.519,0-0.937,0.147-1.255,0.442c-0.319,0.295-0.511,0.688-0.574,1.181H163.17z"/>
	<path fill="#578C2D" d="M168.811,153.883c0-0.188,0.065-0.353,0.197-0.492c0.132-0.139,0.293-0.209,0.484-0.209
		c0.19,0,0.353,0.07,0.483,0.209c0.132,0.14,0.197,0.304,0.197,0.492c0,0.205-0.063,0.373-0.191,0.504
		c-0.127,0.132-0.291,0.197-0.489,0.197c-0.2,0-0.363-0.065-0.49-0.197C168.874,154.256,168.811,154.088,168.811,153.883z
		 M169.025,156.134h0.933v5.756h-0.933V156.134z"/>
	<path fill="#578C2D" d="M171.93,160.377c0.184,0.238,0.384,0.427,0.604,0.565c0.219,0.14,0.496,0.209,0.83,0.209
		c0.144,0,0.289-0.016,0.437-0.049c0.147-0.032,0.281-0.086,0.4-0.16c0.12-0.073,0.215-0.166,0.287-0.276
		c0.071-0.11,0.107-0.244,0.107-0.399c0-0.156-0.034-0.283-0.102-0.382s-0.157-0.183-0.269-0.252
		c-0.112-0.069-0.239-0.125-0.383-0.166s-0.291-0.078-0.442-0.11c-0.263-0.058-0.514-0.123-0.753-0.197
		c-0.239-0.073-0.448-0.17-0.627-0.289c-0.18-0.119-0.323-0.272-0.431-0.461s-0.161-0.431-0.161-0.726
		c0-0.279,0.06-0.524,0.18-0.738c0.119-0.213,0.278-0.39,0.478-0.528c0.199-0.14,0.422-0.246,0.669-0.32
		c0.247-0.073,0.502-0.11,0.766-0.11c0.397,0,0.767,0.082,1.105,0.246c0.338,0.164,0.604,0.43,0.794,0.799l-0.776,0.529
		c-0.119-0.205-0.277-0.371-0.472-0.498c-0.195-0.127-0.433-0.19-0.712-0.19c-0.127,0-0.257,0.016-0.388,0.049
		c-0.132,0.033-0.249,0.082-0.353,0.147s-0.189,0.149-0.257,0.252c-0.068,0.103-0.102,0.22-0.102,0.351
		c0,0.123,0.037,0.228,0.113,0.313c0.075,0.086,0.179,0.162,0.311,0.228c0.132,0.066,0.282,0.123,0.454,0.173
		c0.171,0.049,0.349,0.09,0.532,0.123c0.246,0.049,0.481,0.112,0.705,0.19c0.223,0.078,0.418,0.183,0.585,0.313
		c0.168,0.131,0.299,0.295,0.395,0.492c0.096,0.196,0.144,0.438,0.144,0.726c0,0.328-0.063,0.606-0.191,0.836
		c-0.127,0.229-0.297,0.416-0.508,0.56s-0.45,0.248-0.717,0.313c-0.268,0.065-0.54,0.099-0.819,0.099
		c-0.478,0-0.89-0.076-1.236-0.228s-0.659-0.433-0.938-0.843L171.93,160.377z"/>
	<path fill="#578C2D" d="M180.702,156.945h-1.219v-0.812h1.219v-1.292c0-0.352,0.032-0.674,0.096-0.965s0.173-0.543,0.329-0.757
		c0.155-0.213,0.36-0.379,0.615-0.498c0.255-0.118,0.569-0.178,0.944-0.178c0.119,0,0.246,0.012,0.382,0.036
		c0.136,0.025,0.247,0.062,0.335,0.111l-0.132,0.86c-0.223-0.082-0.435-0.123-0.633-0.123c-0.239,0-0.427,0.043-0.562,0.13
		c-0.135,0.086-0.236,0.205-0.305,0.356c-0.067,0.151-0.107,0.334-0.119,0.547c-0.012,0.214-0.018,0.443-0.018,0.689v1.082h1.362
		v0.812h-1.362v4.944h-0.933V156.945z"/>
	<path fill="#578C2D" d="M183.856,153.883c0-0.188,0.065-0.353,0.197-0.492c0.132-0.139,0.293-0.209,0.484-0.209
		c0.19,0,0.353,0.07,0.483,0.209c0.132,0.14,0.197,0.304,0.197,0.492c0,0.205-0.063,0.373-0.191,0.504
		c-0.127,0.132-0.291,0.197-0.489,0.197c-0.2,0-0.363-0.065-0.49-0.197C183.92,154.256,183.856,154.088,183.856,153.883z
		 M184.071,156.134h0.933v5.756h-0.933V156.134z"/>
	<path fill="#578C2D" d="M186.856,157.499c0-0.263-0.009-0.509-0.024-0.738s-0.023-0.438-0.023-0.627h0.884
		c0,0.155,0.004,0.312,0.012,0.467c0.008,0.156,0.013,0.316,0.013,0.48h0.023c0.063-0.14,0.153-0.275,0.27-0.406
		c0.115-0.131,0.252-0.248,0.412-0.351c0.159-0.103,0.338-0.185,0.537-0.246s0.415-0.092,0.646-0.092
		c0.366,0,0.684,0.058,0.95,0.172c0.267,0.115,0.488,0.274,0.663,0.479c0.176,0.205,0.305,0.453,0.389,0.744
		s0.126,0.609,0.126,0.953v3.555H190.8v-3.456c0-0.483-0.104-0.865-0.311-1.144c-0.207-0.279-0.53-0.418-0.968-0.418
		c-0.304,0-0.564,0.053-0.783,0.159s-0.398,0.259-0.538,0.455c-0.14,0.197-0.243,0.431-0.311,0.701s-0.102,0.57-0.102,0.898v2.804
		h-0.932V157.499z"/>
	<path fill="#578C2D" d="M193.369,153.883c0-0.188,0.065-0.353,0.197-0.492c0.132-0.139,0.293-0.209,0.484-0.209
		c0.19,0,0.353,0.07,0.483,0.209c0.132,0.14,0.197,0.304,0.197,0.492c0,0.205-0.063,0.373-0.191,0.504
		c-0.127,0.132-0.291,0.197-0.489,0.197c-0.2,0-0.363-0.065-0.49-0.197C193.433,154.256,193.369,154.088,193.369,153.883z
		 M193.584,156.134h0.933v5.756h-0.933V156.134z"/>
	<path fill="#578C2D" d="M196.488,160.377c0.184,0.238,0.384,0.427,0.604,0.565c0.219,0.14,0.496,0.209,0.83,0.209
		c0.144,0,0.289-0.016,0.437-0.049c0.147-0.032,0.281-0.086,0.4-0.16c0.12-0.073,0.215-0.166,0.287-0.276
		c0.071-0.11,0.107-0.244,0.107-0.399c0-0.156-0.034-0.283-0.102-0.382s-0.157-0.183-0.269-0.252
		c-0.112-0.069-0.239-0.125-0.383-0.166s-0.291-0.078-0.442-0.11c-0.263-0.058-0.514-0.123-0.753-0.197
		c-0.239-0.073-0.448-0.17-0.627-0.289c-0.18-0.119-0.323-0.272-0.431-0.461s-0.161-0.431-0.161-0.726
		c0-0.279,0.06-0.524,0.18-0.738c0.119-0.213,0.278-0.39,0.478-0.528c0.199-0.14,0.422-0.246,0.669-0.32
		c0.247-0.073,0.502-0.11,0.766-0.11c0.397,0,0.767,0.082,1.105,0.246c0.338,0.164,0.604,0.43,0.794,0.799l-0.776,0.529
		c-0.119-0.205-0.277-0.371-0.472-0.498c-0.195-0.127-0.433-0.19-0.712-0.19c-0.127,0-0.257,0.016-0.388,0.049
		c-0.132,0.033-0.249,0.082-0.353,0.147s-0.189,0.149-0.257,0.252c-0.068,0.103-0.102,0.22-0.102,0.351
		c0,0.123,0.037,0.228,0.113,0.313c0.075,0.086,0.179,0.162,0.311,0.228c0.132,0.066,0.282,0.123,0.454,0.173
		c0.171,0.049,0.349,0.09,0.532,0.123c0.246,0.049,0.481,0.112,0.705,0.19c0.223,0.078,0.418,0.183,0.585,0.313
		c0.168,0.131,0.299,0.295,0.395,0.492c0.096,0.196,0.144,0.438,0.144,0.726c0,0.328-0.063,0.606-0.191,0.836
		c-0.127,0.229-0.297,0.416-0.508,0.56s-0.45,0.248-0.717,0.313c-0.268,0.065-0.54,0.099-0.819,0.099
		c-0.478,0-0.89-0.076-1.236-0.228s-0.659-0.433-0.938-0.843L196.488,160.377z"/>
	<path fill="#578C2D" d="M201.46,152.592h0.932v4.342h0.024c0.063-0.115,0.15-0.228,0.263-0.339c0.111-0.11,0.245-0.211,0.4-0.301
		c0.155-0.091,0.328-0.164,0.52-0.222s0.395-0.086,0.609-0.086c0.366,0,0.684,0.058,0.95,0.172c0.267,0.115,0.488,0.274,0.663,0.479
		c0.176,0.205,0.305,0.453,0.389,0.744s0.126,0.609,0.126,0.953v3.555h-0.933v-3.456c0-0.483-0.104-0.865-0.311-1.144
		c-0.207-0.279-0.53-0.418-0.968-0.418c-0.304,0-0.564,0.053-0.783,0.159s-0.398,0.259-0.538,0.455
		c-0.14,0.197-0.243,0.431-0.311,0.701s-0.102,0.57-0.102,0.898v2.804h-0.932V152.592z"/>
	<path fill="#578C2D" d="M213.101,160.844c-0.335,0.443-0.701,0.753-1.1,0.929c-0.398,0.177-0.86,0.265-1.386,0.265
		c-0.438,0-0.833-0.08-1.184-0.239c-0.351-0.16-0.647-0.376-0.891-0.646s-0.43-0.59-0.562-0.959s-0.197-0.763-0.197-1.181
		c0-0.442,0.072-0.851,0.215-1.224c0.144-0.373,0.343-0.693,0.598-0.96c0.255-0.266,0.558-0.473,0.908-0.621
		c0.351-0.147,0.733-0.221,1.147-0.221c0.391,0,0.749,0.067,1.076,0.203c0.326,0.135,0.607,0.332,0.842,0.59
		c0.235,0.259,0.417,0.574,0.544,0.947c0.128,0.373,0.191,0.797,0.191,1.272v0.308h-4.518c0.016,0.246,0.073,0.482,0.174,0.707
		c0.1,0.226,0.229,0.423,0.388,0.591s0.347,0.301,0.562,0.399c0.216,0.099,0.45,0.147,0.706,0.147c0.406,0,0.748-0.073,1.027-0.221
		c0.278-0.147,0.529-0.365,0.753-0.652L213.101,160.844z M212.3,158.495c-0.016-0.492-0.172-0.886-0.466-1.181
		c-0.295-0.295-0.701-0.442-1.219-0.442c-0.519,0-0.937,0.147-1.255,0.442c-0.319,0.295-0.511,0.688-0.574,1.181H212.3z"/>
	<path fill="#578C2D" d="M219.398,160.869h-0.023c-0.176,0.328-0.453,0.604-0.831,0.83c-0.379,0.226-0.818,0.338-1.32,0.338
		c-0.391,0-0.757-0.076-1.1-0.228s-0.64-0.362-0.891-0.633c-0.251-0.271-0.448-0.591-0.592-0.96
		c-0.143-0.369-0.215-0.771-0.215-1.205s0.072-0.836,0.215-1.205c0.144-0.369,0.343-0.689,0.598-0.96s0.563-0.481,0.927-0.633
		c0.362-0.152,0.763-0.228,1.201-0.228c0.406,0,0.778,0.086,1.117,0.258c0.339,0.173,0.635,0.414,0.891,0.726h0.023v-4.378h0.933
		v9.298h-0.933V160.869z M219.398,159.012c0-0.304-0.046-0.584-0.138-0.843c-0.092-0.258-0.225-0.483-0.4-0.676
		c-0.175-0.193-0.384-0.345-0.627-0.455c-0.243-0.111-0.516-0.166-0.818-0.166c-0.304,0-0.576,0.055-0.819,0.166
		c-0.243,0.11-0.452,0.262-0.627,0.455c-0.176,0.192-0.309,0.418-0.4,0.676c-0.092,0.259-0.138,0.539-0.138,0.843
		s0.046,0.584,0.138,0.843c0.092,0.258,0.225,0.483,0.4,0.676c0.175,0.193,0.384,0.345,0.627,0.455
		c0.243,0.111,0.516,0.166,0.819,0.166c0.303,0,0.575-0.055,0.818-0.166c0.243-0.11,0.452-0.262,0.627-0.455
		c0.176-0.192,0.309-0.418,0.4-0.676C219.353,159.596,219.398,159.315,219.398,159.012z"/>
	<path fill="#578C2D" d="M222.709,163.587h-0.921l0.813-2.952h1.087L222.709,163.587z"/>
	<path fill="#578C2D" d="M83.614,171.631c0.287-0.304,0.627-0.527,1.022-0.671s0.795-0.215,1.201-0.215
		c0.829,0,1.426,0.201,1.792,0.603c0.366,0.401,0.55,1.013,0.55,1.832v2.473c0,0.164,0.008,0.334,0.024,0.511
		c0.016,0.176,0.036,0.338,0.06,0.485h-0.896c-0.032-0.131-0.05-0.276-0.054-0.437s-0.006-0.302-0.006-0.425h-0.024
		c-0.183,0.296-0.428,0.537-0.735,0.726c-0.307,0.189-0.675,0.283-1.105,0.283c-0.287,0-0.556-0.037-0.807-0.11
		c-0.251-0.074-0.47-0.183-0.657-0.326c-0.188-0.144-0.337-0.321-0.448-0.535c-0.112-0.213-0.167-0.459-0.167-0.737
		c0-0.476,0.12-0.849,0.359-1.12c0.239-0.271,0.536-0.471,0.89-0.603c0.354-0.131,0.737-0.213,1.147-0.246
		c0.41-0.032,0.787-0.049,1.129-0.049h0.358v-0.172c0-0.418-0.122-0.734-0.365-0.947s-0.583-0.319-1.021-0.319
		c-0.303,0-0.6,0.051-0.891,0.153s-0.548,0.261-0.771,0.474L83.614,171.631z M86.315,173.881c-0.598,0-1.072,0.086-1.422,0.259
		c-0.351,0.172-0.526,0.455-0.526,0.849c0,0.36,0.118,0.617,0.353,0.769s0.528,0.228,0.878,0.228c0.271,0,0.508-0.047,0.711-0.142
		c0.203-0.094,0.372-0.219,0.508-0.375c0.135-0.155,0.239-0.338,0.311-0.547c0.072-0.21,0.111-0.433,0.12-0.671v-0.369H86.315z"/>
	<path fill="#578C2D" d="M96.271,171.704h-1.649v2.878c0,0.188,0.004,0.363,0.012,0.522c0.008,0.16,0.04,0.3,0.096,0.419
		c0.056,0.118,0.139,0.213,0.251,0.282c0.111,0.07,0.271,0.104,0.478,0.104c0.135,0,0.274-0.016,0.418-0.049
		c0.144-0.032,0.279-0.082,0.406-0.147l0.036,0.873c-0.16,0.074-0.337,0.127-0.532,0.16c-0.195,0.032-0.381,0.049-0.556,0.049
		c-0.335,0-0.602-0.045-0.801-0.135c-0.199-0.091-0.355-0.218-0.466-0.382c-0.112-0.164-0.185-0.366-0.221-0.608
		c-0.036-0.242-0.054-0.511-0.054-0.806v-3.161H92.47v-0.812h1.219v-1.636h0.932v1.636h1.649V171.704z"/>
	<path fill="#578C2D" d="M97.417,172.258c0-0.263-0.008-0.509-0.024-0.738s-0.024-0.438-0.024-0.627h0.884
		c0,0.155,0.004,0.312,0.012,0.467c0.008,0.156,0.012,0.316,0.012,0.48h0.024c0.064-0.14,0.153-0.275,0.269-0.406
		c0.115-0.131,0.253-0.248,0.412-0.351c0.16-0.103,0.339-0.185,0.538-0.246s0.414-0.092,0.646-0.092
		c0.063,0,0.127,0.004,0.191,0.012c0.064,0.009,0.127,0.025,0.191,0.05l-0.06,0.972c-0.159-0.05-0.327-0.074-0.502-0.074
		c-0.573,0-0.99,0.19-1.249,0.572c-0.259,0.381-0.389,0.903-0.389,1.568v2.804h-0.932V172.258z"/>
	<path fill="#578C2D" d="M106.405,175.603c-0.334,0.443-0.701,0.753-1.1,0.929c-0.398,0.177-0.86,0.265-1.386,0.265
		c-0.438,0-0.833-0.08-1.183-0.239c-0.351-0.16-0.647-0.376-0.89-0.646c-0.243-0.271-0.431-0.59-0.562-0.959
		s-0.197-0.763-0.197-1.181c0-0.442,0.072-0.851,0.215-1.224s0.342-0.693,0.598-0.96c0.255-0.266,0.558-0.473,0.908-0.621
		c0.351-0.147,0.733-0.221,1.147-0.221c0.391,0,0.749,0.067,1.076,0.203c0.327,0.135,0.607,0.332,0.843,0.59
		c0.235,0.259,0.416,0.574,0.543,0.947s0.191,0.797,0.191,1.272v0.308h-4.518c0.016,0.246,0.074,0.482,0.173,0.707
		c0.1,0.226,0.229,0.423,0.389,0.591c0.159,0.168,0.346,0.301,0.562,0.399s0.45,0.147,0.705,0.147c0.406,0,0.749-0.073,1.028-0.221
		s0.53-0.365,0.753-0.652L106.405,175.603z M105.604,173.254c-0.016-0.492-0.171-0.886-0.466-1.181
		c-0.294-0.295-0.701-0.442-1.219-0.442c-0.518,0-0.936,0.147-1.255,0.442s-0.51,0.688-0.574,1.181H105.604z"/>
	<path fill="#578C2D" d="M113.049,175.603c-0.334,0.443-0.701,0.753-1.1,0.929c-0.398,0.177-0.86,0.265-1.386,0.265
		c-0.438,0-0.833-0.08-1.183-0.239c-0.351-0.16-0.647-0.376-0.89-0.646c-0.243-0.271-0.431-0.59-0.562-0.959
		s-0.197-0.763-0.197-1.181c0-0.442,0.072-0.851,0.215-1.224s0.342-0.693,0.598-0.96c0.255-0.266,0.558-0.473,0.908-0.621
		c0.351-0.147,0.733-0.221,1.147-0.221c0.391,0,0.749,0.067,1.076,0.203c0.327,0.135,0.607,0.332,0.843,0.59
		c0.235,0.259,0.416,0.574,0.543,0.947s0.191,0.797,0.191,1.272v0.308h-4.518c0.016,0.246,0.074,0.482,0.173,0.707
		c0.1,0.226,0.229,0.423,0.389,0.591c0.159,0.168,0.346,0.301,0.562,0.399s0.45,0.147,0.705,0.147c0.406,0,0.749-0.073,1.028-0.221
		s0.53-0.365,0.753-0.652L113.049,175.603z M112.249,173.254c-0.016-0.492-0.171-0.886-0.466-1.181
		c-0.294-0.295-0.701-0.442-1.219-0.442c-0.518,0-0.936,0.147-1.255,0.442s-0.51,0.688-0.574,1.181H112.249z"/>
	<path fill="#578C2D" d="M124.02,176.648h-0.92l-1.589-4.428h-0.024l-1.41,4.428h-0.956l-1.816-5.756h1.028l1.278,4.428h0.024
		l1.446-4.428h0.98l1.47,4.428h0.024l1.267-4.428h1.004L124.02,176.648z"/>
	<path fill="#578C2D" d="M126.745,168.642c0-0.188,0.066-0.353,0.197-0.492c0.131-0.139,0.292-0.209,0.484-0.209
		s0.353,0.07,0.484,0.209c0.132,0.14,0.197,0.304,0.197,0.492c0,0.205-0.064,0.373-0.191,0.504c-0.128,0.132-0.291,0.197-0.49,0.197
		s-0.363-0.065-0.49-0.197C126.808,169.015,126.745,168.847,126.745,168.642z M126.96,170.893h0.932v5.756h-0.932V170.893z"/>
	<path fill="#578C2D" d="M129.828,167.351h0.932v9.298h-0.932V167.351z"/>
	<path fill="#578C2D" d="M132.708,167.351h0.933v9.298h-0.933V167.351z"/>
	<path fill="#578C2D" d="M138.768,167.351h0.932v4.378h0.024c0.255-0.312,0.551-0.553,0.89-0.726
		c0.339-0.172,0.712-0.258,1.118-0.258c0.438,0,0.838,0.075,1.2,0.228c0.363,0.151,0.672,0.362,0.927,0.633s0.454,0.591,0.598,0.96
		s0.215,0.771,0.215,1.205s-0.071,0.836-0.215,1.205s-0.341,0.688-0.592,0.96c-0.251,0.271-0.548,0.481-0.891,0.633
		s-0.709,0.228-1.1,0.228c-0.502,0-0.941-0.112-1.32-0.338c-0.378-0.226-0.655-0.502-0.83-0.83h-0.024v1.021h-0.932V167.351z
		 M139.699,173.771c0,0.304,0.046,0.584,0.138,0.843c0.092,0.258,0.225,0.483,0.4,0.676c0.175,0.193,0.384,0.345,0.627,0.455
		c0.243,0.111,0.516,0.166,0.819,0.166c0.303,0,0.575-0.055,0.818-0.166c0.243-0.11,0.452-0.262,0.627-0.455
		c0.176-0.192,0.309-0.418,0.4-0.676c0.092-0.259,0.138-0.539,0.138-0.843s-0.046-0.584-0.138-0.843
		c-0.092-0.258-0.225-0.483-0.4-0.676c-0.175-0.193-0.384-0.345-0.627-0.455c-0.243-0.111-0.516-0.166-0.818-0.166
		c-0.304,0-0.576,0.055-0.819,0.166c-0.243,0.11-0.452,0.262-0.627,0.455c-0.176,0.192-0.309,0.418-0.4,0.676
		C139.745,173.187,139.699,173.467,139.699,173.771z"/>
	<path fill="#578C2D" d="M151.112,175.603c-0.335,0.443-0.701,0.753-1.1,0.929c-0.398,0.177-0.86,0.265-1.386,0.265
		c-0.438,0-0.833-0.08-1.184-0.239c-0.351-0.16-0.647-0.376-0.891-0.646s-0.43-0.59-0.562-0.959s-0.197-0.763-0.197-1.181
		c0-0.442,0.072-0.851,0.215-1.224c0.144-0.373,0.343-0.693,0.598-0.96c0.255-0.266,0.558-0.473,0.908-0.621
		c0.351-0.147,0.733-0.221,1.147-0.221c0.391,0,0.749,0.067,1.076,0.203c0.326,0.135,0.607,0.332,0.842,0.59
		c0.235,0.259,0.417,0.574,0.544,0.947c0.128,0.373,0.191,0.797,0.191,1.272v0.308h-4.518c0.016,0.246,0.073,0.482,0.174,0.707
		c0.1,0.226,0.229,0.423,0.388,0.591s0.347,0.301,0.562,0.399c0.216,0.099,0.45,0.147,0.706,0.147c0.406,0,0.748-0.073,1.027-0.221
		c0.278-0.147,0.529-0.365,0.753-0.652L151.112,175.603z M150.312,173.254c-0.016-0.492-0.172-0.886-0.466-1.181
		c-0.295-0.295-0.701-0.442-1.219-0.442c-0.519,0-0.937,0.147-1.255,0.442c-0.319,0.295-0.511,0.688-0.574,1.181H150.312z"/>
	<path fill="#578C2D" d="M156.036,170.893h0.932v0.836h0.024c0.255-0.312,0.551-0.553,0.89-0.726
		c0.339-0.172,0.712-0.258,1.118-0.258c0.438,0,0.838,0.075,1.2,0.228c0.363,0.151,0.672,0.362,0.927,0.633s0.454,0.591,0.598,0.96
		s0.215,0.771,0.215,1.205s-0.071,0.836-0.215,1.205s-0.341,0.688-0.592,0.96c-0.251,0.271-0.548,0.481-0.891,0.633
		s-0.709,0.228-1.1,0.228c-0.502,0-0.941-0.112-1.32-0.338c-0.378-0.226-0.655-0.502-0.83-0.83h-0.024v3.824h-0.932V170.893z
		 M156.968,173.771c0,0.304,0.046,0.584,0.138,0.843c0.092,0.258,0.225,0.483,0.4,0.676c0.175,0.193,0.384,0.345,0.627,0.455
		c0.243,0.111,0.516,0.166,0.819,0.166c0.303,0,0.575-0.055,0.818-0.166c0.243-0.11,0.452-0.262,0.627-0.455
		c0.176-0.192,0.309-0.418,0.4-0.676c0.092-0.259,0.138-0.539,0.138-0.843s-0.046-0.584-0.138-0.843
		c-0.092-0.258-0.225-0.483-0.4-0.676c-0.175-0.193-0.384-0.345-0.627-0.455c-0.243-0.111-0.516-0.166-0.818-0.166
		c-0.304,0-0.576,0.055-0.819,0.166c-0.243,0.11-0.452,0.262-0.627,0.455c-0.176,0.192-0.309,0.418-0.4,0.676
		C157.014,173.187,156.968,173.467,156.968,173.771z"/>
	<path fill="#578C2D" d="M163.469,167.351h0.933v9.298h-0.933V167.351z"/>
	<path fill="#578C2D" d="M166.182,171.631c0.287-0.304,0.628-0.527,1.021-0.671c0.395-0.144,0.795-0.215,1.201-0.215
		c0.829,0,1.427,0.201,1.793,0.603s0.55,1.013,0.55,1.832v2.473c0,0.164,0.008,0.334,0.023,0.511
		c0.017,0.176,0.036,0.338,0.061,0.485h-0.896c-0.032-0.131-0.05-0.276-0.054-0.437s-0.006-0.302-0.006-0.425h-0.024
		c-0.184,0.296-0.429,0.537-0.734,0.726c-0.308,0.189-0.676,0.283-1.105,0.283c-0.287,0-0.557-0.037-0.808-0.11
		c-0.251-0.074-0.47-0.183-0.657-0.326c-0.187-0.144-0.336-0.321-0.448-0.535c-0.111-0.213-0.167-0.459-0.167-0.737
		c0-0.476,0.12-0.849,0.358-1.12c0.239-0.271,0.536-0.471,0.891-0.603c0.354-0.131,0.737-0.213,1.147-0.246
		c0.41-0.032,0.786-0.049,1.129-0.049h0.358v-0.172c0-0.418-0.121-0.734-0.364-0.947s-0.584-0.319-1.021-0.319
		c-0.303,0-0.6,0.051-0.891,0.153s-0.548,0.261-0.771,0.474L166.182,171.631z M168.883,173.881c-0.598,0-1.071,0.086-1.422,0.259
		c-0.352,0.172-0.526,0.455-0.526,0.849c0,0.36,0.117,0.617,0.353,0.769s0.528,0.228,0.879,0.228c0.271,0,0.508-0.047,0.711-0.142
		c0.203-0.094,0.372-0.219,0.508-0.375c0.135-0.155,0.239-0.338,0.311-0.547c0.071-0.21,0.111-0.433,0.119-0.671v-0.369H168.883z"/>
	<path fill="#578C2D" d="M172.456,172.258c0-0.263-0.009-0.509-0.024-0.738s-0.023-0.438-0.023-0.627h0.884
		c0,0.155,0.004,0.312,0.012,0.467c0.008,0.156,0.013,0.316,0.013,0.48h0.023c0.063-0.14,0.153-0.275,0.27-0.406
		c0.115-0.131,0.252-0.248,0.412-0.351c0.159-0.103,0.338-0.185,0.537-0.246s0.415-0.092,0.646-0.092
		c0.366,0,0.684,0.058,0.95,0.172c0.267,0.115,0.488,0.274,0.663,0.479c0.176,0.205,0.305,0.453,0.389,0.744
		s0.126,0.609,0.126,0.953v3.555h-0.933v-3.456c0-0.483-0.104-0.865-0.311-1.144c-0.207-0.279-0.53-0.418-0.968-0.418
		c-0.304,0-0.564,0.053-0.783,0.159s-0.398,0.259-0.538,0.455c-0.14,0.197-0.243,0.431-0.311,0.701s-0.102,0.57-0.102,0.898v2.804
		h-0.932V172.258z"/>
	<path fill="#578C2D" d="M182.16,171.704h-1.648v2.878c0,0.188,0.004,0.363,0.012,0.522c0.008,0.16,0.04,0.3,0.096,0.419
		c0.056,0.118,0.139,0.213,0.251,0.282c0.111,0.07,0.271,0.104,0.478,0.104c0.136,0,0.275-0.016,0.419-0.049
		c0.143-0.032,0.278-0.082,0.406-0.147l0.035,0.873c-0.159,0.074-0.336,0.127-0.531,0.16c-0.195,0.032-0.381,0.049-0.556,0.049
		c-0.335,0-0.602-0.045-0.801-0.135c-0.199-0.091-0.354-0.218-0.466-0.382c-0.112-0.164-0.186-0.366-0.222-0.608
		s-0.054-0.511-0.054-0.806v-3.161h-1.219v-0.812h1.219v-1.636h0.933v1.636h1.648V171.704z"/>
	<path fill="#578C2D" d="M188.303,175.603c-0.335,0.443-0.701,0.753-1.1,0.929c-0.398,0.177-0.86,0.265-1.386,0.265
		c-0.438,0-0.833-0.08-1.184-0.239c-0.351-0.16-0.647-0.376-0.891-0.646s-0.43-0.59-0.562-0.959s-0.197-0.763-0.197-1.181
		c0-0.442,0.072-0.851,0.215-1.224c0.144-0.373,0.343-0.693,0.598-0.96c0.255-0.266,0.558-0.473,0.908-0.621
		c0.351-0.147,0.733-0.221,1.147-0.221c0.391,0,0.749,0.067,1.076,0.203c0.326,0.135,0.607,0.332,0.842,0.59
		c0.235,0.259,0.417,0.574,0.544,0.947c0.128,0.373,0.191,0.797,0.191,1.272v0.308h-4.518c0.016,0.246,0.073,0.482,0.174,0.707
		c0.1,0.226,0.229,0.423,0.388,0.591s0.347,0.301,0.562,0.399c0.216,0.099,0.45,0.147,0.706,0.147c0.406,0,0.748-0.073,1.027-0.221
		c0.278-0.147,0.529-0.365,0.753-0.652L188.303,175.603z M187.502,173.254c-0.016-0.492-0.172-0.886-0.466-1.181
		c-0.295-0.295-0.701-0.442-1.219-0.442c-0.519,0-0.937,0.147-1.255,0.442c-0.319,0.295-0.511,0.688-0.574,1.181H187.502z"/>
	<path fill="#578C2D" d="M194.601,175.628h-0.023c-0.176,0.328-0.453,0.604-0.831,0.83c-0.379,0.226-0.818,0.338-1.32,0.338
		c-0.391,0-0.757-0.076-1.1-0.228s-0.64-0.362-0.891-0.633c-0.251-0.271-0.448-0.591-0.592-0.96
		c-0.143-0.369-0.215-0.771-0.215-1.205s0.072-0.836,0.215-1.205c0.144-0.369,0.343-0.689,0.598-0.96s0.563-0.481,0.927-0.633
		c0.362-0.152,0.763-0.228,1.201-0.228c0.406,0,0.778,0.086,1.117,0.258c0.339,0.173,0.635,0.414,0.891,0.726h0.023v-4.378h0.933
		v9.298h-0.933V175.628z M194.601,173.771c0-0.304-0.046-0.584-0.138-0.843c-0.092-0.258-0.225-0.483-0.4-0.676
		c-0.175-0.193-0.384-0.345-0.627-0.455c-0.243-0.111-0.516-0.166-0.818-0.166c-0.304,0-0.576,0.055-0.819,0.166
		c-0.243,0.11-0.452,0.262-0.627,0.455c-0.176,0.192-0.309,0.418-0.4,0.676c-0.092,0.259-0.138,0.539-0.138,0.843
		s0.046,0.584,0.138,0.843c0.092,0.258,0.225,0.483,0.4,0.676c0.175,0.193,0.384,0.345,0.627,0.455
		c0.243,0.111,0.516,0.166,0.819,0.166c0.303,0,0.575-0.055,0.818-0.166c0.243-0.11,0.452-0.262,0.627-0.455
		c0.176-0.192,0.309-0.418,0.4-0.676C194.555,174.354,194.601,174.074,194.601,173.771z"/>
	<path fill="#578C2D" d="M198.03,175.246c0.199,0,0.368,0.072,0.508,0.216s0.209,0.317,0.209,0.522s-0.073,0.379-0.221,0.522
		s-0.312,0.216-0.496,0.216s-0.349-0.072-0.496-0.216s-0.221-0.317-0.221-0.522s0.069-0.379,0.209-0.522
		S197.831,175.246,198.03,175.246z"/>
</g>
<g>
	<g>
		<path fill="#DCE8C2" d="M82.443,224.936c0,3.701-12.346,6.696-27.573,6.696c-15.227,0-27.573-2.995-27.573-6.696
			c0-3.7,12.346-6.698,27.573-6.698C70.097,218.237,82.443,221.235,82.443,224.936z"/>
	</g>
	<g>
		<rect x="48.758" y="203.247" fill="#C17E3B" width="12.225" height="21.688"/>
	</g>
	<g>
		<rect x="56.981" y="203.247" fill="#A66E30" width="4.001" height="21.688"/>
	</g>
	<g>
		<polyline fill="#66A335" points="54.871,107.621 45.866,140.012 51.869,140.012 45.866,143.404 39.864,162.53 47.366,162.53 
			39.864,167.155 33.485,188.749 44.178,188.749 33.485,193.376 28.981,203.247 54.871,203.247 		"/>
	</g>
	<g>
		<polyline fill="#578C2D" points="54.871,107.621 63.875,140.012 57.873,140.012 63.875,143.404 69.876,162.53 62.375,162.53 
			69.876,167.155 76.257,188.749 65.564,188.749 76.257,193.376 80.759,203.247 54.871,203.247 		"/>
	</g>
</g>
<rect x="97.842" y="194.653" fill="#EAF2E4" width="139.246" height="47.169"/>
<g>
	<g>
		<ellipse fill="#DCE8C2" cx="97.841" cy="263.814" rx="19.38" ry="4.707"/>
	</g>
	<g>
		<rect x="93.545" y="248.568" fill="#C17E3B" width="8.593" height="15.246"/>
	</g>
	<g>
		<rect x="99.325" y="248.568" fill="#A66E30" width="2.813" height="15.246"/>
	</g>
	<g>
		<polyline fill="#66A335" points="97.842,181.352 82.801,240.141 85.971,240.047 82.801,249.423 97.842,249.423 		"/>
	</g>
	<g>
		<polyline fill="#578C2D" points="97.842,181.352 112.88,240.141 109.714,240.047 112.88,249.423 97.842,249.423 		"/>
	</g>
</g>
<g>
	<path fill="#578C2D" d="M121.022,204.469h2.257c0.351,0,0.686,0.037,1.005,0.11c0.318,0.074,0.602,0.198,0.849,0.373
		c0.248,0.174,0.444,0.407,0.591,0.698c0.146,0.291,0.22,0.65,0.22,1.077c0,0.45-0.079,0.822-0.236,1.117
		c-0.158,0.295-0.36,0.528-0.607,0.698c-0.247,0.171-0.518,0.291-0.811,0.361c-0.294,0.069-0.573,0.104-0.838,0.104h-1.526v3.702
		h-0.903V204.469z M121.925,208.101h1.526c0.451,0,0.818-0.11,1.102-0.332c0.283-0.221,0.424-0.564,0.424-1.03
		c0-0.465-0.142-0.809-0.424-1.03c-0.283-0.221-0.65-0.331-1.102-0.331h-1.526V208.101z"/>
	<path fill="#578C2D" d="M127.319,203.91h0.838v8.801h-0.838V203.91z"/>
	<path fill="#578C2D" d="M129.759,207.961c0.258-0.287,0.563-0.498,0.919-0.635c0.354-0.135,0.715-0.203,1.08-0.203
		c0.744,0,1.281,0.19,1.611,0.57s0.494,0.959,0.494,1.734v2.34c0,0.155,0.008,0.316,0.021,0.483c0.016,0.167,0.033,0.32,0.055,0.46
		h-0.807c-0.029-0.124-0.045-0.262-0.049-0.413s-0.004-0.285-0.004-0.401h-0.021c-0.166,0.279-0.387,0.508-0.662,0.687
		s-0.607,0.268-0.994,0.268c-0.258,0-0.5-0.035-0.725-0.104c-0.227-0.07-0.424-0.173-0.592-0.309s-0.303-0.305-0.402-0.507
		c-0.101-0.201-0.15-0.435-0.15-0.698c0-0.45,0.107-0.804,0.322-1.06s0.482-0.446,0.801-0.57s0.662-0.202,1.031-0.232
		c0.369-0.031,0.707-0.047,1.016-0.047h0.322v-0.163c0-0.396-0.109-0.694-0.328-0.896c-0.219-0.201-0.523-0.303-0.918-0.303
		c-0.273,0-0.539,0.049-0.801,0.146c-0.262,0.098-0.492,0.247-0.693,0.448L129.759,207.961z M132.188,210.092
		c-0.537,0-0.963,0.081-1.279,0.244c-0.314,0.163-0.473,0.431-0.473,0.804c0,0.341,0.105,0.584,0.316,0.728
		c0.213,0.144,0.475,0.215,0.791,0.215c0.242,0,0.457-0.044,0.639-0.134c0.184-0.089,0.336-0.207,0.457-0.354
		s0.215-0.32,0.279-0.519s0.1-0.409,0.107-0.635v-0.349H132.188z"/>
	<path fill="#578C2D" d="M135.4,208.555c0-0.248-0.007-0.481-0.021-0.698c-0.014-0.218-0.021-0.415-0.021-0.594h0.796
		c0,0.147,0.003,0.295,0.011,0.442c0.007,0.147,0.011,0.299,0.011,0.454h0.021c0.057-0.132,0.138-0.26,0.241-0.385
		c0.104-0.124,0.228-0.234,0.371-0.331c0.144-0.098,0.305-0.175,0.483-0.233c0.179-0.058,0.373-0.087,0.58-0.087
		c0.33,0,0.614,0.055,0.854,0.163s0.439,0.26,0.597,0.454c0.157,0.193,0.274,0.429,0.35,0.704s0.112,0.576,0.112,0.902v3.364h-0.838
		v-3.271c0-0.458-0.094-0.818-0.279-1.083c-0.187-0.264-0.477-0.396-0.871-0.396c-0.272,0-0.507,0.051-0.703,0.151
		c-0.197,0.102-0.358,0.244-0.484,0.431c-0.125,0.187-0.219,0.407-0.279,0.664c-0.061,0.256-0.091,0.539-0.091,0.85v2.654H135.4
		V208.555z"/>
	<path fill="#578C2D" d="M144.128,208.031h-1.483v2.724c0,0.179,0.004,0.344,0.011,0.495s0.036,0.283,0.086,0.396
		c0.05,0.113,0.125,0.202,0.226,0.268c0.101,0.066,0.243,0.1,0.43,0.1c0.122,0,0.247-0.016,0.376-0.047s0.251-0.077,0.366-0.14
		l0.032,0.826c-0.144,0.07-0.303,0.121-0.479,0.151c-0.176,0.031-0.343,0.047-0.5,0.047c-0.301,0-0.541-0.043-0.72-0.128
		c-0.18-0.085-0.319-0.206-0.419-0.361c-0.101-0.155-0.167-0.347-0.199-0.576c-0.032-0.229-0.048-0.482-0.048-0.763v-2.991h-1.097
		v-0.769h1.097v-1.549h0.838v1.549h1.483V208.031z"/>
	<path fill="#578C2D" d="M148.146,208.555c0-0.248-0.007-0.481-0.021-0.698c-0.014-0.218-0.021-0.415-0.021-0.594h0.796
		c0,0.147,0.003,0.295,0.011,0.442c0.007,0.147,0.011,0.299,0.011,0.454h0.021c0.057-0.132,0.138-0.26,0.241-0.385
		c0.104-0.124,0.228-0.234,0.371-0.331c0.144-0.098,0.305-0.175,0.483-0.233c0.179-0.058,0.373-0.087,0.58-0.087
		c0.272,0,0.5,0.037,0.683,0.11c0.183,0.074,0.335,0.163,0.457,0.268c0.122,0.105,0.217,0.218,0.285,0.338
		c0.067,0.12,0.123,0.227,0.166,0.32c0.187-0.326,0.401-0.58,0.645-0.763c0.244-0.183,0.56-0.273,0.946-0.273
		c0.358,0,0.659,0.053,0.902,0.157c0.244,0.104,0.44,0.256,0.591,0.454c0.151,0.197,0.259,0.438,0.323,0.722s0.097,0.6,0.097,0.948
		v3.307h-0.839v-3.26c0-0.187-0.018-0.368-0.054-0.547s-0.101-0.338-0.193-0.478s-0.219-0.252-0.376-0.338
		c-0.157-0.085-0.358-0.128-0.602-0.128c-0.18,0-0.348,0.039-0.505,0.116c-0.158,0.078-0.296,0.187-0.414,0.326
		s-0.212,0.309-0.279,0.507c-0.068,0.197-0.103,0.417-0.103,0.657v3.144h-0.838v-3.085c0-0.605-0.075-1.034-0.226-1.286
		c-0.15-0.253-0.397-0.379-0.742-0.379c-0.272,0-0.507,0.051-0.703,0.151c-0.197,0.102-0.358,0.244-0.484,0.431
		c-0.125,0.187-0.219,0.407-0.279,0.664c-0.061,0.256-0.091,0.539-0.091,0.85v2.654h-0.839V208.555z"/>
	<path fill="#578C2D" d="M157.012,209.986c0-0.427,0.068-0.814,0.204-1.164c0.137-0.349,0.322-0.649,0.56-0.902
		c0.236-0.252,0.519-0.448,0.849-0.588c0.329-0.14,0.688-0.209,1.074-0.209c0.388,0,0.745,0.069,1.075,0.209
		c0.329,0.14,0.612,0.336,0.849,0.588c0.236,0.253,0.423,0.554,0.559,0.902c0.137,0.35,0.205,0.737,0.205,1.164
		c0,0.428-0.068,0.815-0.205,1.165c-0.136,0.349-0.322,0.649-0.559,0.901c-0.236,0.253-0.52,0.448-0.849,0.588
		c-0.33,0.141-0.688,0.21-1.075,0.21c-0.387,0-0.745-0.069-1.074-0.21c-0.33-0.14-0.612-0.335-0.849-0.588
		c-0.237-0.252-0.423-0.553-0.56-0.901C157.08,210.802,157.012,210.414,157.012,209.986z M157.915,209.986
		c0,0.288,0.041,0.554,0.123,0.798s0.202,0.458,0.36,0.641c0.157,0.183,0.346,0.326,0.564,0.431
		c0.218,0.104,0.463,0.157,0.735,0.157s0.518-0.053,0.736-0.157s0.407-0.248,0.564-0.431s0.277-0.396,0.36-0.641
		c0.082-0.244,0.123-0.51,0.123-0.798c0-0.286-0.041-0.553-0.123-0.797c-0.083-0.244-0.203-0.458-0.36-0.641
		c-0.157-0.182-0.346-0.326-0.564-0.431s-0.464-0.157-0.736-0.157s-0.518,0.053-0.735,0.157c-0.219,0.104-0.407,0.249-0.564,0.431
		c-0.158,0.183-0.278,0.396-0.36,0.641S157.915,209.7,157.915,209.986z"/>
	<path fill="#578C2D" d="M163.686,208.555c0-0.248-0.007-0.481-0.021-0.698c-0.014-0.218-0.021-0.415-0.021-0.594h0.796
		c0,0.147,0.003,0.295,0.011,0.442c0.007,0.147,0.011,0.299,0.011,0.454h0.021c0.057-0.132,0.138-0.26,0.241-0.385
		c0.104-0.124,0.228-0.234,0.371-0.331c0.144-0.098,0.305-0.175,0.483-0.233c0.179-0.058,0.373-0.087,0.58-0.087
		c0.058,0,0.115,0.004,0.173,0.012c0.057,0.008,0.114,0.023,0.172,0.046l-0.054,0.92c-0.144-0.046-0.294-0.069-0.452-0.069
		c-0.516,0-0.89,0.18-1.123,0.541c-0.232,0.361-0.349,0.855-0.349,1.484v2.654h-0.839V208.555z"/>
	<path fill="#578C2D" d="M171.768,211.722c-0.301,0.419-0.63,0.712-0.988,0.879s-0.773,0.25-1.247,0.25
		c-0.394,0-0.748-0.075-1.063-0.227s-0.582-0.355-0.801-0.611c-0.219-0.257-0.387-0.559-0.505-0.908s-0.178-0.722-0.178-1.118
		c0-0.419,0.064-0.805,0.193-1.158c0.129-0.353,0.309-0.655,0.538-0.908c0.229-0.252,0.501-0.448,0.816-0.588
		s0.659-0.209,1.031-0.209c0.352,0,0.674,0.063,0.968,0.192c0.294,0.128,0.546,0.313,0.758,0.559
		c0.211,0.244,0.374,0.543,0.488,0.896c0.115,0.353,0.172,0.755,0.172,1.205v0.291h-4.062c0.014,0.232,0.065,0.456,0.155,0.669
		c0.09,0.214,0.206,0.399,0.35,0.559s0.312,0.285,0.505,0.379c0.193,0.093,0.404,0.14,0.634,0.14c0.365,0,0.674-0.07,0.925-0.21
		c0.25-0.14,0.477-0.345,0.677-0.617L171.768,211.722z M171.048,209.498c-0.015-0.466-0.154-0.839-0.419-1.118
		c-0.266-0.279-0.631-0.419-1.097-0.419s-0.842,0.14-1.128,0.419c-0.287,0.279-0.459,0.652-0.516,1.118H171.048z"/>
	<path fill="#578C2D" d="M178.99,208.031h-1.483v2.724c0,0.179,0.004,0.344,0.011,0.495s0.036,0.283,0.086,0.396
		c0.05,0.113,0.125,0.202,0.226,0.268c0.101,0.066,0.243,0.1,0.43,0.1c0.122,0,0.247-0.016,0.376-0.047s0.251-0.077,0.366-0.14
		l0.032,0.826c-0.144,0.07-0.303,0.121-0.479,0.151c-0.176,0.031-0.343,0.047-0.5,0.047c-0.301,0-0.541-0.043-0.72-0.128
		c-0.18-0.085-0.319-0.206-0.419-0.361c-0.101-0.155-0.167-0.347-0.199-0.576c-0.032-0.229-0.048-0.482-0.048-0.763v-2.991h-1.097
		v-0.769h1.097v-1.549h0.838v1.549h1.483V208.031z"/>
	<path fill="#578C2D" d="M180.021,208.555c0-0.248-0.007-0.481-0.021-0.698c-0.014-0.218-0.021-0.415-0.021-0.594h0.796
		c0,0.147,0.003,0.295,0.011,0.442c0.007,0.147,0.011,0.299,0.011,0.454h0.021c0.057-0.132,0.138-0.26,0.241-0.385
		c0.104-0.124,0.228-0.234,0.371-0.331c0.144-0.098,0.305-0.175,0.483-0.233c0.179-0.058,0.373-0.087,0.58-0.087
		c0.058,0,0.115,0.004,0.173,0.012c0.057,0.008,0.114,0.023,0.172,0.046l-0.054,0.92c-0.144-0.046-0.294-0.069-0.452-0.069
		c-0.516,0-0.89,0.18-1.123,0.541c-0.232,0.361-0.349,0.855-0.349,1.484v2.654h-0.839V208.555z"/>
	<path fill="#578C2D" d="M188.103,211.722c-0.301,0.419-0.63,0.712-0.988,0.879s-0.773,0.25-1.247,0.25
		c-0.394,0-0.748-0.075-1.063-0.227s-0.582-0.355-0.801-0.611c-0.219-0.257-0.387-0.559-0.505-0.908s-0.178-0.722-0.178-1.118
		c0-0.419,0.064-0.805,0.193-1.158c0.129-0.353,0.309-0.655,0.538-0.908c0.229-0.252,0.501-0.448,0.816-0.588
		s0.659-0.209,1.031-0.209c0.352,0,0.674,0.063,0.968,0.192c0.294,0.128,0.546,0.313,0.758,0.559
		c0.211,0.244,0.374,0.543,0.488,0.896c0.115,0.353,0.172,0.755,0.172,1.205v0.291h-4.062c0.014,0.232,0.065,0.456,0.155,0.669
		c0.09,0.214,0.206,0.399,0.35,0.559s0.312,0.285,0.505,0.379c0.193,0.093,0.404,0.14,0.634,0.14c0.365,0,0.674-0.07,0.925-0.21
		c0.25-0.14,0.477-0.345,0.677-0.617L188.103,211.722z M187.383,209.498c-0.015-0.466-0.154-0.839-0.419-1.118
		c-0.266-0.279-0.631-0.419-1.097-0.419s-0.842,0.14-1.128,0.419c-0.287,0.279-0.459,0.652-0.516,1.118H187.383z"/>
	<path fill="#578C2D" d="M194.077,211.722c-0.301,0.419-0.63,0.712-0.988,0.879s-0.773,0.25-1.247,0.25
		c-0.394,0-0.748-0.075-1.063-0.227s-0.582-0.355-0.801-0.611c-0.219-0.257-0.387-0.559-0.505-0.908s-0.178-0.722-0.178-1.118
		c0-0.419,0.064-0.805,0.193-1.158c0.129-0.353,0.309-0.655,0.538-0.908c0.229-0.252,0.501-0.448,0.816-0.588
		s0.659-0.209,1.031-0.209c0.352,0,0.674,0.063,0.968,0.192c0.294,0.128,0.546,0.313,0.758,0.559
		c0.211,0.244,0.374,0.543,0.488,0.896c0.115,0.353,0.172,0.755,0.172,1.205v0.291h-4.062c0.014,0.232,0.065,0.456,0.155,0.669
		c0.09,0.214,0.206,0.399,0.35,0.559s0.312,0.285,0.505,0.379c0.193,0.093,0.404,0.14,0.634,0.14c0.365,0,0.674-0.07,0.925-0.21
		c0.25-0.14,0.477-0.345,0.677-0.617L194.077,211.722z M193.357,209.498c-0.015-0.466-0.154-0.839-0.419-1.118
		c-0.266-0.279-0.631-0.419-1.097-0.419s-0.842,0.14-1.128,0.419c-0.287,0.279-0.459,0.652-0.516,1.118H193.357z"/>
	<path fill="#578C2D" d="M196.152,214.317h-0.828l0.731-2.794h0.978L196.152,214.317z"/>
	<path fill="#578C2D" d="M120.807,221.931c0.258-0.287,0.564-0.498,0.918-0.635c0.355-0.135,0.715-0.203,1.08-0.203
		c0.745,0,1.283,0.19,1.612,0.57s0.494,0.959,0.494,1.734v2.34c0,0.155,0.007,0.316,0.021,0.483s0.032,0.32,0.054,0.46h-0.806
		c-0.029-0.124-0.045-0.262-0.048-0.413c-0.004-0.151-0.005-0.285-0.005-0.401h-0.021c-0.165,0.279-0.385,0.508-0.661,0.687
		s-0.607,0.268-0.994,0.268c-0.258,0-0.5-0.035-0.726-0.104c-0.226-0.07-0.422-0.173-0.591-0.309s-0.303-0.305-0.403-0.507
		c-0.101-0.201-0.151-0.435-0.151-0.698c0-0.45,0.108-0.804,0.323-1.06s0.481-0.446,0.8-0.57s0.663-0.202,1.032-0.232
		c0.369-0.031,0.708-0.047,1.016-0.047h0.322v-0.163c0-0.396-0.109-0.694-0.328-0.896c-0.219-0.201-0.525-0.303-0.919-0.303
		c-0.272,0-0.539,0.049-0.8,0.146c-0.262,0.098-0.493,0.247-0.693,0.448L120.807,221.931z M123.236,224.062
		c-0.538,0-0.964,0.081-1.279,0.244c-0.315,0.163-0.473,0.431-0.473,0.804c0,0.341,0.106,0.584,0.317,0.728
		c0.211,0.144,0.474,0.215,0.79,0.215c0.244,0,0.457-0.044,0.64-0.134c0.183-0.089,0.334-0.207,0.457-0.354
		c0.122-0.147,0.215-0.32,0.279-0.519s0.101-0.409,0.107-0.635v-0.349H123.236z"/>
	<path fill="#578C2D" d="M126.449,222.524c0-0.248-0.007-0.481-0.021-0.698c-0.015-0.218-0.021-0.415-0.021-0.594h0.795
		c0,0.147,0.004,0.295,0.011,0.442c0.007,0.147,0.011,0.299,0.011,0.454h0.021c0.058-0.132,0.138-0.26,0.242-0.385
		c0.104-0.124,0.227-0.234,0.371-0.331c0.143-0.098,0.304-0.175,0.483-0.233c0.179-0.058,0.373-0.087,0.581-0.087
		c0.329,0,0.614,0.055,0.854,0.163s0.439,0.26,0.596,0.454c0.158,0.193,0.275,0.429,0.35,0.704c0.076,0.275,0.113,0.576,0.113,0.902
		v3.364h-0.838v-3.271c0-0.458-0.094-0.818-0.279-1.083c-0.188-0.264-0.477-0.396-0.871-0.396c-0.272,0-0.507,0.051-0.704,0.151
		c-0.197,0.102-0.358,0.244-0.483,0.431c-0.125,0.187-0.219,0.407-0.279,0.664c-0.061,0.256-0.092,0.539-0.092,0.85v2.654h-0.838
		V222.524z"/>
	<path fill="#578C2D" d="M136.604,225.715h-0.021c-0.157,0.311-0.406,0.572-0.747,0.785c-0.34,0.214-0.735,0.32-1.188,0.32
		c-0.351,0-0.681-0.072-0.988-0.215c-0.309-0.144-0.575-0.344-0.801-0.6c-0.226-0.257-0.403-0.56-0.532-0.908
		c-0.129-0.35-0.193-0.729-0.193-1.142c0-0.411,0.064-0.791,0.193-1.141c0.129-0.349,0.309-0.651,0.538-0.908
		c0.229-0.256,0.506-0.455,0.832-0.6c0.326-0.144,0.687-0.215,1.08-0.215c0.366,0,0.7,0.081,1.005,0.244s0.571,0.393,0.801,0.688
		h0.021v-4.145h0.839v8.801h-0.839V225.715z M136.604,223.956c0-0.286-0.041-0.553-0.123-0.797c-0.083-0.244-0.203-0.458-0.36-0.641
		c-0.157-0.182-0.346-0.326-0.564-0.431s-0.464-0.157-0.736-0.157s-0.518,0.053-0.735,0.157c-0.219,0.104-0.407,0.249-0.564,0.431
		c-0.158,0.183-0.278,0.396-0.36,0.641s-0.123,0.511-0.123,0.797c0,0.288,0.041,0.554,0.123,0.798s0.202,0.458,0.36,0.641
		c0.157,0.183,0.346,0.326,0.564,0.431c0.218,0.104,0.463,0.157,0.735,0.157s0.518-0.053,0.736-0.157s0.407-0.248,0.564-0.431
		s0.277-0.396,0.36-0.641C136.563,224.51,136.604,224.244,136.604,223.956z"/>
	<path fill="#578C2D" d="M141.935,217.88h0.839v4.145h0.021c0.229-0.295,0.496-0.524,0.801-0.688
		c0.304-0.163,0.639-0.244,1.004-0.244c0.395,0,0.755,0.071,1.08,0.215c0.326,0.145,0.604,0.344,0.833,0.6
		c0.229,0.257,0.409,0.56,0.538,0.908c0.129,0.35,0.193,0.729,0.193,1.141c0,0.412-0.064,0.792-0.193,1.142
		c-0.129,0.349-0.307,0.651-0.532,0.908c-0.226,0.256-0.493,0.456-0.801,0.6c-0.309,0.143-0.638,0.215-0.988,0.215
		c-0.452,0-0.848-0.106-1.188-0.32c-0.341-0.213-0.59-0.475-0.747-0.785h-0.021v0.966h-0.839V217.88z M142.773,223.956
		c0,0.288,0.041,0.554,0.123,0.798c0.083,0.244,0.202,0.458,0.36,0.641c0.157,0.183,0.346,0.326,0.564,0.431
		c0.218,0.104,0.464,0.157,0.735,0.157c0.272,0,0.518-0.053,0.736-0.157s0.407-0.248,0.564-0.431s0.277-0.396,0.36-0.641
		c0.082-0.244,0.123-0.51,0.123-0.798c0-0.286-0.041-0.553-0.123-0.797c-0.083-0.244-0.203-0.458-0.36-0.641
		c-0.157-0.182-0.346-0.326-0.564-0.431s-0.464-0.157-0.736-0.157c-0.271,0-0.518,0.053-0.735,0.157
		c-0.219,0.104-0.407,0.249-0.564,0.431c-0.158,0.183-0.277,0.396-0.36,0.641C142.814,223.403,142.773,223.67,142.773,223.956z"/>
	<path fill="#578C2D" d="M153.036,225.691c-0.301,0.419-0.63,0.712-0.988,0.879s-0.773,0.25-1.247,0.25
		c-0.394,0-0.748-0.075-1.063-0.227s-0.582-0.355-0.801-0.611c-0.219-0.257-0.387-0.559-0.505-0.908s-0.178-0.722-0.178-1.118
		c0-0.419,0.064-0.805,0.193-1.158c0.129-0.353,0.309-0.655,0.538-0.908c0.229-0.252,0.501-0.448,0.816-0.588
		s0.659-0.209,1.031-0.209c0.352,0,0.674,0.063,0.968,0.192c0.294,0.128,0.546,0.313,0.758,0.559
		c0.211,0.244,0.374,0.543,0.488,0.896c0.115,0.353,0.172,0.755,0.172,1.205v0.291h-4.062c0.014,0.232,0.065,0.456,0.155,0.669
		c0.09,0.214,0.206,0.399,0.35,0.559s0.312,0.285,0.505,0.379c0.193,0.093,0.404,0.14,0.634,0.14c0.365,0,0.674-0.07,0.925-0.21
		c0.25-0.14,0.477-0.345,0.677-0.617L153.036,225.691z M152.316,223.468c-0.015-0.466-0.154-0.839-0.419-1.118
		c-0.266-0.279-0.631-0.419-1.097-0.419s-0.842,0.14-1.128,0.419c-0.287,0.279-0.459,0.652-0.516,1.118H152.316z"/>
	<path fill="#578C2D" d="M160.259,222.001h-1.483v2.724c0,0.179,0.004,0.344,0.011,0.495s0.036,0.283,0.086,0.396
		c0.05,0.113,0.125,0.202,0.226,0.268c0.101,0.066,0.243,0.1,0.43,0.1c0.122,0,0.247-0.016,0.376-0.047s0.251-0.077,0.366-0.14
		l0.032,0.826c-0.144,0.07-0.303,0.121-0.479,0.151c-0.176,0.031-0.343,0.047-0.5,0.047c-0.301,0-0.541-0.043-0.72-0.128
		c-0.18-0.085-0.319-0.206-0.419-0.361c-0.101-0.155-0.167-0.347-0.199-0.576c-0.032-0.229-0.048-0.482-0.048-0.763v-2.991h-1.097
		v-0.769h1.097v-1.549h0.838v1.549h1.483V222.001z"/>
	<path fill="#578C2D" d="M161.3,217.88h0.839v4.109h0.021c0.057-0.108,0.136-0.216,0.236-0.32c0.1-0.104,0.22-0.2,0.359-0.285
		c0.141-0.085,0.296-0.155,0.468-0.21c0.172-0.054,0.354-0.081,0.548-0.081c0.33,0,0.614,0.055,0.854,0.163s0.439,0.26,0.597,0.454
		c0.157,0.193,0.274,0.429,0.35,0.704s0.112,0.576,0.112,0.902v3.364h-0.838v-3.271c0-0.458-0.094-0.818-0.279-1.083
		c-0.187-0.264-0.477-0.396-0.871-0.396c-0.272,0-0.507,0.051-0.703,0.151c-0.197,0.102-0.358,0.244-0.484,0.431
		c-0.125,0.187-0.219,0.407-0.279,0.664c-0.061,0.256-0.091,0.539-0.091,0.85v2.654H161.3V217.88z"/>
	<path fill="#578C2D" d="M171.768,225.691c-0.301,0.419-0.63,0.712-0.988,0.879s-0.773,0.25-1.247,0.25
		c-0.394,0-0.748-0.075-1.063-0.227s-0.582-0.355-0.801-0.611c-0.219-0.257-0.387-0.559-0.505-0.908s-0.178-0.722-0.178-1.118
		c0-0.419,0.064-0.805,0.193-1.158c0.129-0.353,0.309-0.655,0.538-0.908c0.229-0.252,0.501-0.448,0.816-0.588
		s0.659-0.209,1.031-0.209c0.352,0,0.674,0.063,0.968,0.192c0.294,0.128,0.546,0.313,0.758,0.559
		c0.211,0.244,0.374,0.543,0.488,0.896c0.115,0.353,0.172,0.755,0.172,1.205v0.291h-4.062c0.014,0.232,0.065,0.456,0.155,0.669
		c0.09,0.214,0.206,0.399,0.35,0.559s0.312,0.285,0.505,0.379c0.193,0.093,0.404,0.14,0.634,0.14c0.365,0,0.674-0.07,0.925-0.21
		c0.25-0.14,0.477-0.345,0.677-0.617L171.768,225.691z M171.048,223.468c-0.015-0.466-0.154-0.839-0.419-1.118
		c-0.266-0.279-0.631-0.419-1.097-0.419s-0.842,0.14-1.128,0.419c-0.287,0.279-0.459,0.652-0.516,1.118H171.048z"/>
	<path fill="#578C2D" d="M175.508,218.438h0.999l1.73,6.845h0.021l1.87-6.845h1.01l1.859,6.845h0.021l1.763-6.845h0.945
		l-2.234,8.242h-0.979l-1.881-6.985h-0.021l-1.892,6.985h-0.988L175.508,218.438z"/>
	<path fill="#578C2D" d="M186.469,219.102c0-0.178,0.06-0.333,0.178-0.466c0.118-0.132,0.263-0.197,0.436-0.197
		c0.172,0,0.316,0.065,0.435,0.197c0.118,0.133,0.178,0.288,0.178,0.466c0,0.194-0.058,0.354-0.172,0.478
		c-0.115,0.124-0.262,0.187-0.44,0.187c-0.18,0-0.326-0.062-0.441-0.187C186.526,219.455,186.469,219.296,186.469,219.102z
		 M186.662,221.232h0.839v5.448h-0.839V221.232z"/>
	<path fill="#578C2D" d="M189.166,222.524c0-0.248-0.007-0.481-0.021-0.698c-0.014-0.218-0.021-0.415-0.021-0.594h0.796
		c0,0.147,0.003,0.295,0.011,0.442c0.007,0.147,0.011,0.299,0.011,0.454h0.021c0.057-0.132,0.138-0.26,0.241-0.385
		c0.104-0.124,0.228-0.234,0.371-0.331c0.144-0.098,0.305-0.175,0.483-0.233c0.179-0.058,0.373-0.087,0.58-0.087
		c0.33,0,0.614,0.055,0.854,0.163s0.439,0.26,0.597,0.454c0.157,0.193,0.274,0.429,0.35,0.704s0.112,0.576,0.112,0.902v3.364h-0.838
		v-3.271c0-0.458-0.094-0.818-0.279-1.083c-0.187-0.264-0.477-0.396-0.871-0.396c-0.272,0-0.507,0.051-0.703,0.151
		c-0.197,0.102-0.358,0.244-0.484,0.431c-0.125,0.187-0.219,0.407-0.279,0.664c-0.061,0.256-0.091,0.539-0.091,0.85v2.654h-0.839
		V222.524z"/>
	<path fill="#578C2D" d="M195.142,222.524c0-0.248-0.007-0.481-0.021-0.698c-0.014-0.218-0.021-0.415-0.021-0.594h0.796
		c0,0.147,0.003,0.295,0.011,0.442c0.007,0.147,0.011,0.299,0.011,0.454h0.021c0.057-0.132,0.138-0.26,0.241-0.385
		c0.104-0.124,0.228-0.234,0.371-0.331c0.144-0.098,0.305-0.175,0.483-0.233c0.179-0.058,0.373-0.087,0.58-0.087
		c0.33,0,0.614,0.055,0.854,0.163s0.439,0.26,0.597,0.454c0.157,0.193,0.274,0.429,0.35,0.704s0.112,0.576,0.112,0.902v3.364h-0.838
		v-3.271c0-0.458-0.094-0.818-0.279-1.083c-0.187-0.264-0.477-0.396-0.871-0.396c-0.272,0-0.507,0.051-0.703,0.151
		c-0.197,0.102-0.358,0.244-0.484,0.431c-0.125,0.187-0.219,0.407-0.279,0.664c-0.061,0.256-0.091,0.539-0.091,0.85v2.654h-0.839
		V222.524z"/>
	<path fill="#578C2D" d="M205.608,225.691c-0.301,0.419-0.63,0.712-0.988,0.879s-0.773,0.25-1.247,0.25
		c-0.394,0-0.748-0.075-1.063-0.227s-0.582-0.355-0.801-0.611c-0.219-0.257-0.387-0.559-0.505-0.908s-0.178-0.722-0.178-1.118
		c0-0.419,0.064-0.805,0.193-1.158c0.129-0.353,0.309-0.655,0.538-0.908c0.229-0.252,0.501-0.448,0.816-0.588
		s0.659-0.209,1.031-0.209c0.352,0,0.674,0.063,0.968,0.192c0.294,0.128,0.546,0.313,0.758,0.559
		c0.211,0.244,0.374,0.543,0.488,0.896c0.115,0.353,0.172,0.755,0.172,1.205v0.291h-4.062c0.014,0.232,0.065,0.456,0.155,0.669
		c0.09,0.214,0.206,0.399,0.35,0.559s0.312,0.285,0.505,0.379c0.193,0.093,0.404,0.14,0.634,0.14c0.365,0,0.674-0.07,0.925-0.21
		c0.25-0.14,0.477-0.345,0.677-0.617L205.608,225.691z M204.889,223.468c-0.015-0.466-0.154-0.839-0.419-1.118
		c-0.266-0.279-0.631-0.419-1.097-0.419s-0.842,0.14-1.128,0.419c-0.287,0.279-0.459,0.652-0.516,1.118H204.889z"/>
	<path fill="#578C2D" d="M207.092,222.524c0-0.248-0.007-0.481-0.021-0.698c-0.014-0.218-0.021-0.415-0.021-0.594h0.796
		c0,0.147,0.003,0.295,0.011,0.442c0.007,0.147,0.011,0.299,0.011,0.454h0.021c0.057-0.132,0.138-0.26,0.241-0.385
		c0.104-0.124,0.228-0.234,0.371-0.331c0.144-0.098,0.305-0.175,0.483-0.233c0.179-0.058,0.373-0.087,0.58-0.087
		c0.058,0,0.115,0.004,0.173,0.012c0.057,0.008,0.114,0.023,0.172,0.046l-0.054,0.92c-0.144-0.046-0.294-0.069-0.452-0.069
		c-0.516,0-0.89,0.18-1.123,0.541c-0.232,0.361-0.349,0.855-0.349,1.484v2.654h-0.839V222.524z"/>
	<path fill="#578C2D" d="M211.573,225.354c0.179,0,0.331,0.068,0.456,0.204c0.126,0.136,0.188,0.301,0.188,0.494
		c0,0.194-0.066,0.359-0.199,0.495c-0.132,0.136-0.281,0.204-0.445,0.204c-0.165,0-0.313-0.068-0.446-0.204
		s-0.199-0.301-0.199-0.495c0-0.193,0.063-0.358,0.188-0.494S211.394,225.354,211.573,225.354z M212.024,224.376h-0.903v-5.938
		h0.903V224.376z"/>
</g>
<g>
	<g>
		<path fill="#DCE8C2" d="M254.569,274.839c0,2.208-8.948,3.997-19.979,3.997c-11.034,0-19.981-1.789-19.981-3.997
			c0-2.209,8.947-3.999,19.981-3.999C245.621,270.84,254.569,272.63,254.569,274.839z"/>
	</g>
	<g>
		<rect x="230.16" y="261.893" fill="#C17E3B" width="8.856" height="12.946"/>
	</g>
	<g>
		<rect x="236.118" y="261.893" fill="#A66E30" width="2.898" height="12.946"/>
	</g>
	<g>
		<polyline fill="#66A335" points="234.59,204.811 228.063,224.146 232.414,224.146 228.063,226.171 223.714,237.587 
			229.15,237.587 223.714,240.348 219.093,253.238 226.842,253.238 219.093,256 215.829,261.893 234.59,261.893 		"/>
	</g>
	<g>
		<polyline fill="#578C2D" points="234.59,204.811 241.114,224.146 236.764,224.146 241.114,226.171 245.463,237.587 
			240.027,237.587 245.463,240.348 250.084,253.238 242.338,253.238 250.084,256 253.349,261.893 234.59,261.893 		"/>
	</g>
</g>
<g>
	<g>
		<path fill="#999999" d="M202.365,262.946c0,0-1.085-1.729-2.281-2.282c-1.194-0.554-2.825-0.299-2.971,0
			c-0.146,0.301-1.268,2.352-0.942,3.041c0.328,0.692,2.391,0.762,2.682,0.809C199.144,264.56,203.454,264.676,202.365,262.946z"/>
	</g>
	<g>
		<path fill="#888888" d="M201.606,264.27c0,0,1.159-0.713,0-1.658c-1.159-0.946-0.798-0.9-1.195-1.016
			c-0.399-0.113-0.834-0.206-1.341,0.301c-0.509,0.507-0.471,0.507-1.123,0.553c-0.651,0.047-0.762,0.644-0.762,1.13
			c0,0.484-0.452,0.559-0.452,0.559S199.258,264.946,201.606,264.27z"/>
	</g>
	<g>
		<path fill="#656666" d="M201.495,264.312c0,0-0.821-0.309-1.595-0.463c-0.773-0.152-1.473-0.507-1.932-0.198
			c-0.459,0.307-0.941,0.399-0.773,0.569C197.364,264.39,199.74,264.786,201.495,264.312z"/>
	</g>
	<g>
		<path fill="#999999" d="M182.471,258.922c0,0,2.188-3.482,4.593-4.594c2.405-1.114,5.688-0.603,5.979,0
			c0.292,0.602,2.552,4.732,1.895,6.125c-0.655,1.39-4.812,1.528-5.396,1.623C188.958,262.167,180.283,262.4,182.471,258.922z"/>
	</g>
	<g>
		<path fill="#888888" d="M184.002,261.585c0,0-2.334-1.438,0-3.343c2.331-1.901,1.604-1.809,2.404-2.041
			c0.803-0.231,1.678-0.417,2.697,0.605c1.022,1.021,0.949,1.021,2.262,1.114s1.53,1.299,1.53,2.271
			c0,0.976,0.911,1.128,0.911,1.128S188.728,262.941,184.002,261.585z"/>
	</g>
	<g>
		<path fill="#656666" d="M184.227,261.673c0,0,1.652-0.623,3.208-0.935c1.555-0.309,2.965-1.019,3.889-0.401
			c0.924,0.62,1.896,0.806,1.554,1.146C192.539,261.822,187.756,262.622,184.227,261.673z"/>
	</g>
</g>
</svg>
